<svg width="24" height="24" viewBox="0 0 24 24" fill="none" xmlns="http://www.w3.org/2000/svg">
<path opacity="0.1" fill-rule="evenodd" clip-rule="evenodd" d="M0 12C0 5.37258 5.37258 0 12 0C18.6274 0 24 5.37258 24 12C24 18.6274 18.6274 24 12 24C5.37258 24 0 18.6274 0 12Z" fill="white"/>
<path d="M15.5007 6.16669H13.7507C12.9771 6.16669 12.2352 6.47398 11.6883 7.02096C11.1413 7.56794 10.834 8.30981 10.834 9.08335V10.8334H9.08398V13.1667H10.834V17.8334H13.1673V13.1667H14.9173L15.5007 10.8334H13.1673V9.08335C13.1673 8.92864 13.2288 8.78027 13.3382 8.67088C13.4476 8.56148 13.5959 8.50002 13.7507 8.50002H15.5007V6.16669Z" fill="white"/>
</svg>
