<svg width="24" height="24" viewBox="0 0 24 24" fill="none" xmlns="http://www.w3.org/2000/svg">
<path opacity="0.1" fill-rule="evenodd" clip-rule="evenodd" d="M0 12C0 5.37258 5.37258 0 12 0C18.6274 0 24 5.37258 24 12C24 18.6274 18.6274 24 12 24C5.37258 24 0 18.6274 0 12Z" fill="white"/>
<path d="M8.04812 16.1193C7.23278 16.1193 6.51545 15.9389 5.89613 15.5781C5.27681 15.2145 4.79386 14.6989 4.44727 14.0312C4.10067 13.3608 3.92738 12.5653 3.92738 11.6449C3.92738 10.9375 4.03249 10.3068 4.24272 9.75284C4.45295 9.19602 4.74556 8.72443 5.12056 8.33807C5.4984 7.9517 5.93732 7.65767 6.43732 7.45597C6.93732 7.25426 7.47425 7.15341 8.04812 7.15341C8.54244 7.15341 9.00408 7.22585 9.43306 7.37074C9.86488 7.51278 10.2498 7.71449 10.5879 7.97585C10.926 8.23438 11.2015 8.54403 11.4146 8.90483C11.6305 9.26278 11.7683 9.65909 11.8279 10.0938H9.96147C9.90181 9.88636 9.81516 9.70312 9.70153 9.54403C9.59073 9.3821 9.45295 9.24574 9.28817 9.13494C9.12624 9.02131 8.943 8.93466 8.73846 8.875C8.53675 8.81534 8.31658 8.78551 8.07795 8.78551C7.63477 8.78551 7.2413 8.89631 6.89755 9.1179C6.5538 9.33949 6.28391 9.66193 6.08789 10.0852C5.89471 10.5057 5.79812 11.0199 5.79812 11.6278C5.79812 12.2358 5.89045 12.7528 6.07511 13.179C6.26261 13.6051 6.52539 13.9304 6.86346 14.1548C7.20153 14.3764 7.59925 14.4872 8.05664 14.4872C8.48278 14.4872 8.84641 14.4105 9.14755 14.2571C9.44869 14.1009 9.6788 13.8849 9.83789 13.6094C9.99982 13.331 10.0808 13.0099 10.0808 12.6463L10.4302 12.7188H8.1717V11.3295H11.9004V16H10.639L10.5325 15.0028H10.4856C10.193 15.358 9.84641 15.6335 9.44585 15.8295C9.04812 16.0227 8.58221 16.1193 8.04812 16.1193ZM15.8368 14.6705V8.63636H17.3624V14.6705H15.8368ZM13.5826 12.4162V10.8906H19.6167V12.4162H13.5826Z" fill="#F9F9F9"/>
</svg>
