<svg width="36" height="36" viewBox="0 0 36 36" fill="none" xmlns="http://www.w3.org/2000/svg">
<path d="M9.0166 27.4997H27.2439C29.4248 27.4997 30.6904 26.2341 30.6904 23.8158V11.3291C30.6904 8.91083 29.4135 7.6452 26.9727 7.6452H8.7454C6.56445 7.6452 5.29883 8.89953 5.29883 11.3291V23.8158C5.29883 26.2341 6.57575 27.4997 9.0166 27.4997ZM16.7234 17.9623L8.49679 9.82615C8.65499 9.79224 8.8358 9.76964 9.0279 9.76964H26.9614C27.1648 9.76964 27.3456 9.79224 27.5151 9.83745L19.2998 17.9623C18.8252 18.4256 18.4297 18.629 18.0116 18.629C17.5935 18.629 17.198 18.4143 16.7234 17.9623ZM7.41197 11.4873L13.5593 17.5329L7.41197 23.6124V11.4873ZM22.4639 17.5329L28.5773 11.5212V23.5898L22.4639 17.5329ZM9.0279 25.364C8.8245 25.364 8.63239 25.3414 8.46289 25.3075L14.9379 18.8889L15.5481 19.4991C16.373 20.3015 17.1641 20.6405 18.0116 20.6405C18.8478 20.6405 19.6501 20.3015 20.4637 19.4991L21.0852 18.8889L27.549 25.2962C27.3682 25.3414 27.1761 25.364 26.9614 25.364H9.0279Z" fill="white"/>
</svg>
