<svg width="93" height="92" viewBox="0 0 93 92" fill="none" xmlns="http://www.w3.org/2000/svg">
<path d="M16.7617 13.1402L25.7933 22.9396C28.3646 20.3898 30.418 17.5007 31.9501 14.408C27.0575 12.7795 21.8364 12.351 16.7617 13.1402Z" fill="#0E0E0E"/>
<path d="M32.3229 33.5356L25.6518 26.2968C22.652 28.8787 19.2915 30.9 15.6953 32.3035C16.9667 36.2069 19.0058 39.9209 21.8199 43.21L32.3229 33.5356Z" fill="#0E0E0E"/>
<path d="M27.4004 24.6859L34.0714 31.9247L44.5743 22.2468C41.5209 19.1684 37.9783 16.8292 34.1857 15.2472C32.5144 18.6756 30.2502 21.8718 27.4004 24.6859Z" fill="#0E0E0E"/>
<path d="M46.1807 23.9932L35.6777 33.6711L41.6238 40.1207C44.7772 37.4102 48.2912 35.3639 51.991 33.9783C50.709 30.4106 48.7734 27.0216 46.1807 23.9932Z" fill="#0E0E0E"/>
<path d="M52.7143 36.2457C49.336 37.5242 46.1254 39.3991 43.2363 41.8704L52.9929 52.459C54.2678 47.1379 54.1857 41.5454 52.7143 36.2457Z" fill="#0E0E0E"/>
<path d="M31.955 53.7376C28.2124 52.0413 24.7233 49.6521 21.6842 46.5702L14.3418 53.3341C18.7272 57.7088 24.2412 60.3336 29.9837 61.1622C30.3658 58.6016 31.0301 56.116 31.955 53.7376Z" fill="#0E0E0E"/>
<path d="M47.9297 22.3826C47.9297 22.3826 47.9297 22.3862 47.9297 22.3826C50.7581 25.6646 52.858 29.3465 54.2436 33.2213C56.7149 32.4856 59.2504 32.0356 61.8003 31.8642C61.4432 26.0681 59.279 20.3506 55.2721 15.6188L47.9297 22.3826Z" fill="#0E0E0E"/>
<path d="M33.9287 35.2816L23.4258 44.9596C26.2292 47.788 29.4433 49.9914 32.8859 51.5556C34.5965 47.9344 36.9464 44.6132 39.8676 41.7312L33.9287 35.2816Z" fill="#0E0E0E"/>
<path d="M15.0402 30.0071C18.2864 28.7143 21.3255 26.8787 24.0432 24.5503L15.0116 14.7509C13.8117 19.747 13.8117 24.9931 15.0402 30.0071Z" fill="#0E0E0E"/>
<path d="M6.18586 32.1321C6.143 32.9177 6.13587 33.707 6.16087 34.4962L6.18586 32.1321Z" fill="#0E0E0E"/>
<path d="M20.0778 44.8203C17.0316 41.2848 14.8317 37.2886 13.4568 33.0889C11.0998 33.8245 8.66067 34.3067 6.16797 34.5209C6.36439 40.5956 8.53925 46.6309 12.7354 51.5877L20.0778 44.8203Z" fill="#0E0E0E"/>
<path d="M12.2793 16.1541C8.52598 20.8109 6.47967 26.4284 6.17969 32.1316C8.43669 31.9209 10.6473 31.4745 12.7829 30.8067C11.5722 26.0035 11.4079 21.0002 12.2793 16.1541Z" fill="#0E0E0E"/>
<path d="M34.1495 54.6447C33.3103 56.8124 32.7032 59.073 32.3496 61.405C32.3496 61.405 32.3496 61.405 32.3532 61.405C38.3385 61.7585 44.431 60.1943 49.6235 56.6624C44.406 57.1695 39.1028 56.491 34.1495 54.6447Z" fill="#0E0E0E"/>
<path d="M32.9248 12.2295C33.7747 10.1368 34.3925 7.96551 34.7854 5.76208C29.0857 5.5978 23.3254 7.17985 18.3828 10.5368C23.2754 10.0654 28.2429 10.6368 32.9248 12.2295Z" fill="#0E0E0E"/>
<path d="M54.9668 35.4853C56.3989 40.5672 56.6381 45.899 55.7096 51.0558C59.6486 46.1704 61.7057 40.2315 61.845 34.2426C59.5272 34.4068 57.2167 34.8211 54.9668 35.4853Z" fill="#0E0E0E"/>
<path d="M35.1465 13.0722C39.2284 14.7828 43.0353 17.3077 46.3172 20.636L53.6596 13.8721C49.0599 9.27957 43.2138 6.61902 37.1678 5.93335C36.7535 8.36534 36.0786 10.7616 35.1465 13.0722Z" fill="#0E0E0E"/>
<path d="M51.2447 54.0697L41.4882 43.4811C38.8205 46.1202 36.6706 49.1557 35.0957 52.4627C40.2597 54.3661 45.8343 54.9054 51.2447 54.0697Z" fill="#0E0E0E"/>
<path d="M43.838 91.6676L39.3311 87.3357L34.8457 82.9824L25.8748 74.2722L16.9361 65.5299L12.4756 61.148L10.2472 58.9553L9.1437 57.8089C8.77943 57.4232 8.44374 57.0125 8.09019 56.6161C5.35107 53.3735 3.20835 49.613 1.84414 45.5811C0.472799 41.5528 -0.148598 37.2638 0.0299626 33.0033C0.204952 28.7428 1.19775 24.5181 2.91551 20.6112C4.62969 16.7043 7.08668 13.1259 10.0936 10.0976L10.0508 10.144L10.0722 10.119L10.0936 10.0976C13.1399 7.0656 16.7504 4.59789 20.693 2.88014C24.632 1.16239 28.8925 0.183877 33.1851 0.0231728C37.4777 -0.13396 41.7953 0.508857 45.8415 1.92663C47.8663 2.63373 49.8233 3.5301 51.6768 4.60146C53.5303 5.6764 55.2766 6.92632 56.8943 8.32624C57.2979 8.67979 57.705 9.02262 58.0835 9.40117C58.4621 9.77258 58.8656 10.1404 59.2228 10.5154L61.4298 12.7581L65.8438 17.2507L74.6504 26.2501L83.4213 35.2853L87.8067 39.8029L92.1708 44.3455L87.6282 39.9814L83.1106 35.596L74.0754 26.8251L65.076 18.0185L60.5834 13.6045L58.3407 11.3975C57.9693 11.0225 57.5907 10.6868 57.2157 10.3297C56.8479 9.96899 56.4479 9.64401 56.0551 9.31189C52.8982 6.66919 49.2591 4.62289 45.3701 3.30154C41.481 1.9802 37.3455 1.40523 33.2494 1.59451C29.1532 1.77664 25.0927 2.70872 21.3465 4.36219C17.5967 6.00852 14.172 8.37266 11.2686 11.2653L11.3114 11.2189L11.29 11.2439L11.2686 11.2653C8.39374 14.1437 6.04746 17.54 4.40113 21.2612C2.74766 24.9788 1.80843 29.0035 1.59773 33.0711C1.38703 37.1388 1.94413 41.2457 3.22263 45.1168C4.50112 48.988 6.49385 52.6235 9.08298 55.7876C9.4151 56.1733 9.73652 56.5733 10.0794 56.9518L11.1293 58.0732L13.322 60.3016L17.7039 64.7621L26.4462 73.7008L35.1564 82.6717L39.5097 87.1571L43.838 91.6676Z" fill="#FFA051"/>
<path d="M44.0586 67.2083C45.9692 68.5367 47.7298 70.0152 49.444 71.5401C51.1546 73.0722 52.8045 74.6614 54.4044 76.3005C56.0043 77.9397 57.5506 79.6325 59.0398 81.386C60.5219 83.143 61.9611 84.9464 63.2431 86.9035C61.329 85.575 59.5684 84.0965 57.8542 82.5716C56.1436 81.0395 54.4937 79.4504 52.8973 77.8076C51.301 76.1648 49.7511 74.4721 48.2619 72.7222C46.7834 70.9652 45.3478 69.1617 44.0586 67.2083Z" fill="#FFA051"/>
<path d="M67.9199 44.0206C69.8305 45.3491 71.5911 46.8276 73.3053 48.3525C75.0159 49.8846 76.6658 51.4737 78.2657 53.1129C79.8656 54.7521 81.412 56.4449 82.9012 58.1983C84.3832 59.9554 85.8224 61.7588 87.1045 63.7159C85.1903 62.3874 83.4297 60.9089 81.7155 59.384C80.0049 57.8519 78.355 56.2627 76.7587 54.62C75.1623 52.9772 73.6124 51.2845 72.1232 49.5346C70.6448 47.774 69.2091 45.9741 67.9199 44.0206Z" fill="#FFA051"/>
<path d="M61.2734 59.1019C63.3805 60.9768 65.3732 62.966 67.3374 64.9873C69.2944 67.0122 71.205 69.0835 73.0799 71.194C74.9548 73.3011 76.7904 75.4509 78.5831 77.6437C80.3687 79.8435 82.1257 82.0684 83.7649 84.4147C81.6543 82.5433 79.6652 80.5506 77.701 78.5329C75.744 76.508 73.8334 74.4367 71.9585 72.3261C70.0836 70.2155 68.248 68.0692 66.4588 65.8765C64.6697 63.6731 62.9126 61.4446 61.2734 59.1019Z" fill="#FFA051"/>
</svg>
