<svg width="107" height="69" viewBox="0 0 107 69" fill="none" xmlns="http://www.w3.org/2000/svg">
<path d="M43.5488 32.4174L46.8615 33.5575L60.9734 38.4169L63.736 39.3697L64.4456 37.3167L61.3521 36.2523L47.607 31.5204L44.3182 30.3883L43.5488 32.4174Z" fill="#FFA051"/>
<path d="M99.2913 11.0782L97.4336 13.6096L82.8114 33.5656L80.4475 36.7866C80.3877 36.5873 80.316 36.388 80.2362 36.1926C80.001 35.6186 79.71 35.0884 79.3672 34.5981L81.4959 31.692L95.6836 12.3299L97.5412 9.79858L99.2913 11.0782Z" fill="#FFA051"/>
<path d="M101.294 20.0955L96.8329 12.5971L88.3418 10.6039L106.065 0L101.294 20.0955Z" fill="#FFA051"/>
<path d="M29.1003 32.5127L27.0194 35.65L19.1742 47.4657L17.2447 50.3798C16.7066 49.8855 16.1086 49.4749 15.4668 49.1401L17.3922 46.2379L25.7717 33.609L28.1994 29.9495C28.2991 30.5275 28.4625 31.0976 28.6897 31.6517C28.8093 31.9546 28.9488 32.2376 29.1003 32.5127Z" fill="#FFA051"/>
<path d="M47.1189 24.1133C44.6792 18.1456 37.8345 15.2754 31.8709 17.7191C28.9847 18.903 26.7244 21.1394 25.5205 24.0176C24.3126 26.8958 24.2967 30.073 25.4806 32.9671C25.5723 33.1824 25.668 33.4016 25.7717 33.6089C26.1225 34.3424 26.545 35.0281 27.0194 35.65C29.2438 38.5481 32.708 40.2303 36.3157 40.2303C37.7867 40.2303 39.2816 39.9473 40.7247 39.3573C43.4474 38.2411 45.6081 36.1921 46.8598 33.5571C46.9315 33.3936 47.0113 33.2262 47.079 33.0588C47.2903 32.5525 47.4657 32.0383 47.6052 31.52C47.8644 30.5394 47.9959 29.5428 47.9959 28.5422C47.9959 27.0393 47.7049 25.5404 47.1189 24.1133ZM43.8819 31.7194C43.7823 31.9585 43.6707 32.1937 43.5471 32.417C42.6501 34.1032 41.2071 35.4187 39.4092 36.1483C35.5145 37.7428 31.0855 36.1124 29.1003 32.5087C28.9488 32.2336 28.8093 31.9506 28.6897 31.6516C28.4625 31.0975 28.299 30.5235 28.1994 29.9494C27.9323 28.4146 28.1037 26.828 28.7216 25.3571C29.5707 23.332 31.1573 21.7573 33.1864 20.9321C34.2069 20.5176 35.2553 20.3182 36.2918 20.3182C37.9103 20.3182 39.4929 20.8006 40.8283 21.6816C42.1678 22.5626 43.2601 23.8422 43.9098 25.4328C44.5636 27.0234 44.6992 28.7495 44.3165 30.3919C44.2088 30.8384 44.0653 31.2848 43.8819 31.7194Z" fill="#0E0E0E"/>
<path d="M22.7106 52.5484C21.9811 50.4914 20.7373 48.7693 19.1707 47.4658C18.6166 47.0033 18.0186 46.5888 17.3887 46.238C14.5584 44.6554 11.0902 44.2527 7.79344 45.4127C3.00177 47.107 0 51.6316 0 56.4512C0 57.7388 0.21128 59.0463 0.661745 60.3259C2.35597 65.1256 6.88055 68.1313 11.6961 68.1313C12.9837 68.1313 14.2913 67.9161 15.5749 67.4656C21.6582 65.3169 24.8553 58.6277 22.7106 52.5484ZM14.4268 64.1888C10.1534 65.6996 5.44943 63.4473 3.93858 59.1739C2.43171 54.9004 4.68005 50.1965 8.95348 48.6856C11.1779 47.9003 13.5179 48.1355 15.4673 49.1401C16.1091 49.4749 16.7071 49.8855 17.2452 50.3799C18.2139 51.2609 18.9793 52.381 19.4417 53.7005C20.9486 57.9779 18.7003 62.6819 14.4268 64.1888Z" fill="#0E0E0E"/>
<path d="M83.4468 34.8808C83.2595 34.4264 83.0522 33.9878 82.813 33.5653C82.4383 32.8916 81.9998 32.2697 81.4975 31.6917C80.3374 30.3204 78.8545 29.236 77.1483 28.5224C74.2701 27.3186 71.0929 27.2986 68.1988 28.4826C64.6987 29.9137 62.271 32.8557 61.3501 36.2481C61.1548 36.9537 61.0312 37.6793 60.9714 38.4168C60.9515 38.7157 60.9355 39.0187 60.9355 39.3177C60.9355 40.7887 61.2186 42.2836 61.8086 43.7266C63.6543 48.2472 68.0353 50.9939 72.6436 50.9939C74.1146 50.9939 75.6095 50.7109 77.0526 50.1209C79.9428 48.9369 82.1991 46.7005 83.403 43.8223C84.6148 40.9441 84.6308 37.767 83.4468 34.8808ZM80.2099 42.4869C79.3608 44.512 77.7742 46.0866 75.7411 46.9118C71.5434 48.6299 66.7358 46.6128 65.0176 42.4191C63.2995 38.2214 65.3166 33.4138 69.5143 31.6957C71.5474 30.8625 73.7798 30.8705 75.8049 31.7236C77.2599 32.3335 78.4877 33.3261 79.3687 34.5977C79.7116 35.0881 80.0026 35.6222 80.2378 36.1923C80.3215 36.3876 80.3892 36.587 80.449 36.7863C81.059 38.652 80.9792 40.6571 80.2099 42.4869Z" fill="#0E0E0E"/>
</svg>
