<svg width="66" height="78" viewBox="0 0 66 78" fill="none" xmlns="http://www.w3.org/2000/svg">
<path d="M54.2327 0.674545L54.3438 35.0759L35.2184 4.6462C34.4337 3.39511 33.0789 2.6474 31.5984 2.6474C30.7951 2.6474 30.0067 2.8732 29.3257 3.30257L28.8223 3.62089L28.8667 1.99599C28.9 0.863344 29.8439 -0.0324132 30.9802 0.000899894" fill="#0E0E0E"/>
<path d="M56.219 42.2345L63.0037 53.0316L62.9001 56.7701C62.8705 57.9064 61.9229 58.7985 60.7903 58.7689L55.2714 58.6171L54.4201 58.5912L29.3686 57.8953C28.2323 57.862 27.3402 56.9181 27.3699 55.7818L28.7468 6.28968L30.505 5.18295C30.8455 4.96826 31.2231 4.86829 31.5969 4.86829C32.2817 4.86829 32.9479 5.20886 33.3366 5.8307L54.3571 39.277L55.2862 40.7539L56.219 42.2197V42.2345Z" fill="#0E0E0E"/>
<path d="M64.3974 2.98445L63.1167 49.0379L56.2061 38.0372L56.084 0.700684L62.4023 0.874641C63.535 0.907954 64.4307 1.85181 64.3974 2.98445Z" fill="#0E0E0E"/>
<path d="M56.2711 58.6132L55.2717 58.6169H54.4203V58.591L54.3574 39.2769L55.2865 40.7537L56.2193 42.2195V42.2343L56.2711 58.6132Z" fill="white"/>
<path d="M64.9685 56.1592L63.003 53.0315L56.2183 42.2344V42.2195L55.2855 40.7538L54.3564 39.2769L33.3359 5.83058C32.9473 5.20873 32.281 4.86816 31.5962 4.86816C31.2224 4.86816 30.8448 4.96814 30.5043 5.18282L28.7461 6.28955L0.959282 23.7493C0.000605568 24.3563 -0.288104 25.6222 0.315233 26.5846L31.9442 76.9132C32.3365 77.5351 33.0028 77.8757 33.6875 77.8757C34.0614 77.8757 34.4389 77.7757 34.7757 77.561L64.3245 58.9945C65.2831 58.3875 65.5718 57.1216 64.9685 56.1592ZM11.4529 36.0344L6.29308 27.8986L7.54048 27.1065L12.704 35.2423L11.4529 36.0344ZM13.1297 24.1861L17.3419 21.5358C17.6676 21.3322 18.0933 21.4285 18.2969 21.7542L23.0792 29.3607C23.2827 29.6827 23.1828 30.1121 22.8608 30.3157L18.6448 32.9659C18.3228 33.1695 17.8934 33.0696 17.6899 32.7475L12.9113 25.141C12.7077 24.8153 12.8039 24.3897 13.1297 24.1861ZM19.3148 48.5712L14.155 40.4355L15.4061 39.6433L20.5659 47.7791L19.3148 48.5712ZM26.8547 60.3048L21.6948 52.169L22.9422 51.3769L28.1057 59.5091L26.8547 60.3048ZM34.2131 72.0495L29.0496 63.9137L30.3007 63.1216L35.4605 71.2575L34.2131 72.0495Z" fill="#FFA051"/>
<path d="M5.47826 62.5368C6.92355 62.5368 8.09519 61.3652 8.09519 59.9199C8.09519 58.4746 6.92355 57.303 5.47826 57.303C4.03297 57.303 2.86133 58.4746 2.86133 59.9199C2.86133 61.3652 4.03297 62.5368 5.47826 62.5368Z" fill="#0E0E0E"/>
<path d="M14.5644 3.28402C15.286 3.28402 15.871 2.69902 15.871 1.9774C15.871 1.25578 15.286 0.670776 14.5644 0.670776C13.8428 0.670776 13.2578 1.25578 13.2578 1.9774C13.2578 2.69902 13.8428 3.28402 14.5644 3.28402Z" fill="#0E0E0E"/>
</svg>
