<svg width="52" height="52" viewBox="0 0 52 52" fill="none" xmlns="http://www.w3.org/2000/svg">
<circle cx="26" cy="26" r="26" fill="#FAFBFF"/>
<path d="M12.2352 23.0856C11.2929 23.0856 11.0543 23.8013 11.5672 24.505L14.4896 28.5367C14.8832 29.0973 15.5154 29.0854 15.8971 28.5367L18.8195 24.4931C19.3085 23.8132 19.0819 23.0856 18.1515 23.0856H16.4338C17.5074 18.8034 21.3601 15.6664 26.0001 15.6664C29.1849 15.6783 31.976 17.1574 33.7653 19.5072C34.2543 20.0678 34.97 20.2467 35.5545 19.8173C36.1031 19.4237 36.2105 18.6484 35.6737 18.0043C33.479 15.1296 29.8529 13.1973 26.0001 13.1973C20.0719 13.1973 15.0502 17.4794 13.9051 23.0856H12.2352ZM26.0001 37.8644C31.9283 37.8644 36.95 33.5822 38.0951 27.9761H39.765C40.7074 27.9761 40.9459 27.2604 40.433 26.5566L37.5226 22.525C37.117 21.9763 36.4848 21.9763 36.1031 22.525L33.1808 26.5686C32.6917 27.2604 32.9184 27.9761 33.8487 27.9761H35.5783C34.4929 32.2582 30.6401 35.4072 26.0001 35.4072C22.8153 35.3953 20.0242 33.9043 18.235 31.5545C17.7459 30.9939 17.0422 30.8149 16.4458 31.2444C15.8971 31.638 15.7897 32.4133 16.3265 33.0693C18.5213 35.9321 22.1474 37.8644 26.0001 37.8644Z" fill="#1C1C1E"/>
</svg>
