<svg width="52" height="52" viewBox="0 0 52 52" fill="none" xmlns="http://www.w3.org/2000/svg">
<circle cx="26" cy="26" r="26" fill="#FAFBFF"/>
<path d="M36.6958 33.2283L36.6958 18.7834C36.6958 16.1951 35.3599 14.8591 32.8073 14.8591L18.2909 14.8591C15.7383 14.8591 14.4023 16.1951 14.4023 18.7834L14.4023 33.2283C14.4023 35.8047 15.7264 37.1526 18.2909 37.1526L32.8073 37.1526C35.3599 37.1526 36.6958 35.8047 36.6958 33.2283ZM34.3221 33.0732C34.3221 34.1706 33.7496 34.7789 32.5926 34.7789L18.5056 34.7789C17.3486 34.7789 16.776 34.1706 16.776 33.0732L16.776 18.9385C16.776 17.8531 17.3486 17.2328 18.5056 17.2328L32.5926 17.2328C33.7496 17.2328 34.3221 17.8531 34.3221 18.9385L34.3221 33.0732ZM21.4399 31.5345C21.7619 31.8685 22.3225 31.8685 22.6446 31.5345L25.5431 28.5644C25.6862 28.4094 25.7817 28.1827 25.7817 27.9799C25.7817 27.5148 25.4596 27.1808 24.9825 27.1808C24.7678 27.1808 24.565 27.2643 24.4099 27.4193L23.2052 28.6598L22.8354 29.0654L22.8593 28.4809L22.8593 21.0259C22.8593 20.5607 22.5015 20.2148 22.0363 20.2148C21.5711 20.2148 21.2252 20.5607 21.2252 21.0259L21.2252 28.469L21.2371 29.0535L20.8793 28.6598L19.6745 27.4193C19.5314 27.2643 19.3167 27.1808 19.102 27.1808C18.6249 27.1808 18.2909 27.5148 18.2909 27.9799C18.2909 28.1946 18.3982 28.4213 18.5533 28.5644L21.4399 31.5345ZM29.6463 20.4772C29.3124 20.1313 28.7875 20.1432 28.4535 20.4772L25.567 23.4354C25.4119 23.5785 25.3165 23.8171 25.3165 24.0198C25.3165 24.497 25.6385 24.831 26.1157 24.831C26.3304 24.8309 26.5331 24.7475 26.6882 24.5924L27.881 23.3399L28.2627 22.9344L28.2388 23.5308L28.2388 30.9858C28.2388 31.4391 28.5848 31.785 29.0499 31.785C29.5151 31.785 29.873 31.4391 29.873 30.9858L29.873 23.5427L29.8491 22.9344L30.2189 23.3399L31.4236 24.5805C31.5787 24.7355 31.7695 24.8309 31.9962 24.8309C32.4614 24.8309 32.8073 24.485 32.8073 24.0198C32.8073 23.829 32.6999 23.6024 32.5568 23.4354L29.6463 20.4772Z" fill="#1C1C1E"/>
</svg>
