<svg width="52" height="52" viewBox="0 0 52 52" fill="none" xmlns="http://www.w3.org/2000/svg">
<circle cx="26" cy="26" r="26" fill="#FAFBFF"/>
<path d="M27.2051 13.555C27.2051 12.899 26.6445 12.3384 25.9884 12.3384C25.3324 12.3384 24.7837 12.899 24.7837 13.555V17.2169C24.7837 17.873 25.3324 18.4217 25.9884 18.4217C26.6445 18.4217 27.2051 17.873 27.2051 17.2169V13.555ZM30.9863 18.7914C30.5211 19.2566 30.533 20.0319 30.9982 20.4971C31.4515 20.9623 32.2387 20.9623 32.7039 20.4971L35.2565 17.9326C35.7217 17.4794 35.7217 16.6802 35.2565 16.215C34.7913 15.7617 34.016 15.7617 33.5508 16.2269L30.9863 18.7914ZM19.2729 20.4971C19.7262 20.9504 20.5135 20.9623 20.9787 20.4971C21.4438 20.0319 21.4438 19.2566 20.9787 18.7914L18.438 16.2388C17.9847 15.7736 17.1975 15.7617 16.7323 16.215C16.2671 16.6802 16.2671 17.4674 16.7323 17.9207L19.2729 20.4971ZM35.4831 37.256C36.0676 37.8524 37.0695 37.8405 37.6421 37.256C38.2266 36.6477 38.2146 35.6934 37.6421 35.097L26.3105 23.7058C25.726 23.1213 24.7241 23.1213 24.1515 23.7058C23.567 24.3141 23.579 25.2803 24.1515 25.8647L35.4831 37.256ZM14.0604 24.2783C13.3924 24.2783 12.8438 24.827 12.8438 25.483C12.8438 26.1391 13.3924 26.6997 14.0604 26.6997H17.7223C18.3783 26.6997 18.939 26.1391 18.939 25.483C18.939 24.827 18.3783 24.2783 17.7223 24.2783H14.0604ZM37.9284 26.6997C38.5844 26.6997 39.145 26.1391 39.145 25.483C39.145 24.827 38.5844 24.2783 37.9284 24.2783H34.2665C33.6104 24.2783 33.0498 24.827 33.0498 25.483C33.0498 26.1391 33.6104 26.6997 34.2665 26.6997H37.9284ZM28.7557 28.9899L25.1654 25.3996C24.9268 25.1491 24.8314 24.8628 25.0819 24.6242C25.2966 24.4095 25.5948 24.4692 25.8572 24.7197L29.4356 28.31L28.7557 28.9899ZM16.7204 33.0216C16.2552 33.4867 16.2552 34.2621 16.6965 34.7273C17.1617 35.1924 17.9609 35.2044 18.4141 34.7511L20.9787 32.1985C21.4438 31.7333 21.4438 30.9461 20.9787 30.4928C20.5254 30.0276 19.7381 30.0157 19.2729 30.4809L16.7204 33.0216ZM27.2051 33.7611C27.2051 33.105 26.6445 32.5444 25.9884 32.5444C25.3324 32.5444 24.7837 33.105 24.7837 33.7611V37.423C24.7837 38.079 25.3324 38.6396 25.9884 38.6396C26.6445 38.6396 27.2051 38.079 27.2051 37.423V33.7611Z" fill="#1C1C1E"/>
</svg>
