<svg width="52" height="52" viewBox="0 0 52 52" fill="none" xmlns="http://www.w3.org/2000/svg">
<circle cx="26" cy="26" r="26" fill="#FAFBFF"/>
<path d="M11.6387 30.0634C11.6387 32.282 12.7718 33.3794 14.9427 33.3794H22.2307L21.9087 35.5384H20.6443C20.0479 35.5384 19.5589 36.0393 19.5589 36.6357C19.5589 37.2202 20.0479 37.7212 20.6443 37.7212H31.4392C32.0475 37.7212 32.5366 37.2202 32.5366 36.6357C32.5366 36.0393 32.0475 35.5384 31.4392 35.5384H30.0794L29.7693 33.3794H37.0453C39.2162 33.3794 40.3613 32.282 40.3613 30.0634V16.6444C40.3613 14.4377 39.2162 13.3403 37.0453 13.3403H14.9427C12.7718 13.3403 11.6387 14.4377 11.6387 16.6444V30.0634ZM13.9646 29.9203V16.7995C13.9646 15.9764 14.3105 15.6663 15.0978 15.6663H36.8903C37.6775 15.6663 38.0354 15.9764 38.0354 16.7995V29.9203C38.0354 30.7314 37.6775 31.0534 36.8903 31.0534H15.0978C14.3105 31.0534 13.9646 30.7314 13.9646 29.9203Z" fill="#1C1C1E"/>
</svg>
