<svg width="52" height="52" viewBox="0 0 52 52" fill="none" xmlns="http://www.w3.org/2000/svg">
<circle cx="26" cy="26" r="26" fill="#FAFBFF"/>
<path d="M21.3126 38.6158H30.7358C32.7755 38.6158 34.1353 37.2799 34.1353 35.2998V15.7379C34.1353 13.7578 32.7755 12.4338 30.7358 12.4338H21.3126C19.2372 12.4338 17.8535 13.7578 17.8535 15.7379V35.2998C17.8535 37.2799 19.2372 38.6158 21.3126 38.6158ZM21.7182 36.1587C20.7759 36.1587 20.2391 35.6458 20.2391 34.7392V16.2985C20.2391 15.392 20.7759 14.8791 21.7182 14.8791H22.2072V15.4755C22.2072 16.0003 22.5532 16.3462 23.0661 16.3462H28.9346C29.4475 16.3462 29.7935 16.0003 29.7935 15.4755V14.8791H30.2706C31.2129 14.8791 31.7497 15.4039 31.7497 16.3104V34.7392C31.7497 35.6458 31.2129 36.1587 30.2706 36.1587H21.7182ZM22.8156 35.2163H29.1851C29.531 35.2163 29.7935 34.9778 29.7935 34.608C29.7935 34.2502 29.531 34.0116 29.1851 34.0116H22.8156C22.4697 34.0116 22.2072 34.2502 22.2072 34.608C22.2072 34.9778 22.4697 35.2163 22.8156 35.2163Z" fill="#1C1C1E"/>
</svg>
