<svg width="52" height="52" viewBox="0 0 52 52" fill="none" xmlns="http://www.w3.org/2000/svg">
<circle cx="26" cy="26" r="26" fill="#FAFBFF"/>
<path d="M10.2676 34.4648C10.2676 35.0731 10.6731 35.4906 11.2934 35.4906H40.7079C41.3281 35.4906 41.7337 35.0731 41.7337 34.4648V16.6086C41.7337 15.9883 41.3281 15.5828 40.7079 15.5828H11.2934C10.6731 15.5828 10.2676 15.9883 10.2676 16.6086V34.4648ZM12.6413 32.771V18.3024C12.6413 18.0638 12.7486 17.9564 12.9872 17.9564H39.026C39.2646 17.9564 39.36 18.0638 39.36 18.3024V32.771C39.36 33.0096 39.2646 33.105 39.026 33.105H12.9872C12.7486 33.105 12.6413 33.0096 12.6413 32.771ZM13.8102 31.3158C13.8102 31.7214 14.0368 31.948 14.4305 31.948H37.5827C37.9764 31.948 38.203 31.7214 38.203 31.3158V19.7576C38.203 19.352 37.9764 19.1254 37.5827 19.1254H14.4305C14.0368 19.1254 13.8102 19.352 13.8102 19.7576V31.3158ZM15.0746 30.4331V20.6402C15.0746 20.4732 15.1581 20.3898 15.3251 20.3898H23.2214C22.2194 21.4991 21.5753 23.2763 21.5753 25.5188C21.5753 27.7732 22.2194 29.5624 23.2333 30.6836H15.3251C15.1581 30.6836 15.0746 30.5882 15.0746 30.4331ZM30.4378 25.5188C30.4378 23.2763 29.7937 21.4991 28.756 20.3898H36.6881C36.8432 20.3898 36.9386 20.4732 36.9386 20.6402V30.4331C36.9386 30.5882 36.8432 30.6836 36.6881 30.6836H28.7441C29.7818 29.5624 30.4378 27.7732 30.4378 25.5188ZM25.9529 30.4451C24.3665 30.4451 23.0186 28.5485 23.0186 25.5188C23.0186 22.5129 24.3665 20.6283 25.9529 20.6283C27.6109 20.6283 28.9946 22.5129 28.9946 25.5188C28.9946 28.5485 27.6109 30.4451 25.9529 30.4451Z" fill="#1C1C1E"/>
</svg>
