<svg width="52" height="52" viewBox="0 0 52 52" fill="none" xmlns="http://www.w3.org/2000/svg">
<circle cx="26" cy="26" r="26" fill="#FAFBFF"/>
<path d="M25.9923 41C26.2691 41 26.6842 40.9086 27.084 40.6953C35.9249 35.9273 39 33.7184 39 28.1735V16.6722C39 14.8442 38.2927 14.1892 36.7398 13.5342C35.0485 12.8182 29.298 10.8378 27.6375 10.2742C27.1147 10.1066 26.5305 10 25.9923 10C25.4695 10 24.8699 10.1371 24.3625 10.2742C22.702 10.7464 16.9515 12.8334 15.2602 13.5342C13.7073 14.174 13 14.8442 13 16.6722V28.1735C13 33.7184 16.0751 35.8968 24.916 40.6953C25.3158 40.9086 25.7309 41 25.9923 41ZM25.9923 37.7705C25.7771 37.7705 25.5618 37.6943 25.1159 37.4201C18.1047 33.1853 15.9213 32.0428 15.9213 27.6098V17.1597C15.9213 16.6113 16.029 16.398 16.4595 16.2152C18.7351 15.3165 23.1478 13.8693 25.1774 13.0771C25.531 12.9553 25.7771 12.9096 25.9923 12.9096C26.2229 12.9096 26.469 12.9553 26.8226 13.0771C28.8522 13.8693 33.2342 15.4079 35.5251 16.2152C35.971 16.3828 36.0787 16.6113 36.0787 17.1597V27.6098C36.0787 32.0732 33.8031 33.2767 26.8841 37.4201C26.4382 37.6943 26.2229 37.7705 25.9923 37.7705ZM24.3471 31.9361C24.916 31.9361 25.3927 31.6619 25.7156 31.1592L32.6499 20.4654C32.8652 20.1455 33.0343 19.7799 33.0343 19.4295C33.0343 18.6678 32.3578 18.1651 31.6198 18.1651C31.1585 18.1651 30.7433 18.4241 30.4205 18.942L24.301 28.6152L21.4412 25.0354C21.0721 24.5631 20.7031 24.3956 20.2572 24.3956C19.4885 24.3956 18.8888 25.0049 18.8888 25.7666C18.8888 26.1322 19.0272 26.4673 19.2886 26.8025L22.9172 31.1744C23.3323 31.6924 23.7782 31.9361 24.3471 31.9361Z" fill="#1C1C1E"/>
</svg>
