<svg width="1440" height="532" viewBox="0 0 1440 532" fill="none" xmlns="http://www.w3.org/2000/svg">
<g clip-path="url(#clip0_1846_2711)">
<circle cx="851" cy="78" r="16" fill="#FFA051" stroke="white" stroke-width="6"/>
<g filter="url(#filter0_dddddd_1846_2711)">
<rect x="219" y="104" width="337" height="232.988" rx="10" fill="white"/>
</g>
<path d="M243.485 148.576V136.238H238.718V134.597H249.979V136.238H245.213V148.576H243.485ZM254.436 148.867C253.394 148.867 252.494 148.631 251.737 148.159C250.986 147.686 250.407 147.033 249.999 146.198C249.592 145.363 249.388 144.405 249.388 143.324C249.388 142.224 249.595 141.26 250.009 140.431C250.423 139.603 251.009 138.959 251.766 138.499C252.523 138.033 253.413 137.8 254.436 137.8C255.484 137.8 256.387 138.037 257.144 138.509C257.902 138.975 258.481 139.626 258.882 140.46C259.29 141.289 259.494 142.243 259.494 143.324C259.494 144.418 259.29 145.382 258.882 146.217C258.474 147.046 257.892 147.696 257.135 148.168C256.377 148.634 255.478 148.867 254.436 148.867ZM254.436 147.227C255.523 147.227 256.332 146.864 256.863 146.14C257.393 145.415 257.659 144.476 257.659 143.324C257.659 142.14 257.39 141.198 256.853 140.499C256.316 139.794 255.51 139.441 254.436 139.441C253.705 139.441 253.103 139.606 252.63 139.936C252.158 140.266 251.805 140.723 251.572 141.305C251.339 141.887 251.223 142.561 251.223 143.324C251.223 144.502 251.494 145.447 252.038 146.159C252.582 146.871 253.381 147.227 254.436 147.227ZM267.485 148.576C266.863 148.699 266.249 148.748 265.64 148.722C265.038 148.702 264.501 148.583 264.029 148.363C263.556 148.136 263.197 147.787 262.951 147.314C262.744 146.9 262.631 146.483 262.611 146.062C262.599 145.635 262.592 145.153 262.592 144.615V135.179H264.32V144.538C264.32 144.965 264.323 145.331 264.33 145.635C264.343 145.939 264.411 146.201 264.534 146.421C264.767 146.835 265.136 147.078 265.64 147.149C266.152 147.22 266.766 147.201 267.485 147.091V148.576ZM260.466 139.519V138.092H267.485V139.519H260.466ZM272.594 148.867C271.811 148.867 271.154 148.725 270.623 148.44C270.099 148.149 269.701 147.767 269.429 147.295C269.164 146.822 269.031 146.305 269.031 145.741C269.031 145.191 269.134 144.716 269.342 144.314C269.555 143.907 269.853 143.57 270.235 143.305C270.617 143.033 271.073 142.819 271.603 142.664C272.102 142.528 272.658 142.412 273.273 142.315C273.895 142.211 274.522 142.117 275.157 142.033C275.791 141.949 276.383 141.868 276.933 141.79L276.312 142.15C276.331 141.218 276.144 140.528 275.749 140.082C275.36 139.635 274.687 139.412 273.73 139.412C273.095 139.412 272.539 139.558 272.06 139.849C271.587 140.134 271.254 140.6 271.06 141.247L269.419 140.752C269.672 139.833 270.16 139.111 270.885 138.587C271.61 138.063 272.565 137.8 273.749 137.8C274.7 137.8 275.516 137.972 276.195 138.315C276.881 138.652 277.373 139.163 277.671 139.849C277.82 140.172 277.914 140.525 277.952 140.907C277.991 141.282 278.011 141.677 278.011 142.091V148.576H276.477V146.062L276.836 146.295C276.441 147.143 275.888 147.783 275.176 148.217C274.471 148.651 273.61 148.867 272.594 148.867ZM272.856 147.421C273.477 147.421 274.014 147.311 274.467 147.091C274.927 146.864 275.296 146.57 275.574 146.207C275.852 145.839 276.033 145.437 276.118 145.004C276.215 144.68 276.266 144.321 276.273 143.926C276.286 143.525 276.292 143.217 276.292 143.004L276.894 143.266C276.331 143.344 275.778 143.418 275.234 143.489C274.691 143.56 274.176 143.638 273.691 143.722C273.205 143.8 272.768 143.894 272.38 144.004C272.095 144.094 271.827 144.211 271.574 144.353C271.328 144.496 271.128 144.68 270.972 144.907C270.824 145.127 270.749 145.402 270.749 145.732C270.749 146.017 270.82 146.288 270.963 146.547C271.112 146.806 271.338 147.016 271.642 147.178C271.953 147.34 272.357 147.421 272.856 147.421ZM280.729 148.576V134.306H282.457V148.576H280.729ZM289.257 148.576V134.597H294.703C295.538 134.597 296.249 134.768 296.838 135.111C297.434 135.454 297.887 135.907 298.197 136.471C298.515 137.027 298.673 137.629 298.673 138.276C298.673 139.033 298.479 139.697 298.091 140.266C297.702 140.836 297.178 141.227 296.518 141.441L296.499 140.965C297.398 141.205 298.097 141.645 298.595 142.286C299.094 142.926 299.343 143.69 299.343 144.577C299.343 145.392 299.175 146.097 298.838 146.693C298.508 147.288 298.029 147.751 297.401 148.081C296.78 148.411 296.042 148.576 295.188 148.576H289.257ZM291.004 146.926H294.858C295.376 146.926 295.838 146.832 296.246 146.644C296.654 146.45 296.974 146.178 297.207 145.829C297.447 145.479 297.566 145.059 297.566 144.567C297.566 144.094 297.46 143.67 297.246 143.295C297.039 142.92 296.745 142.622 296.363 142.402C295.987 142.175 295.55 142.062 295.052 142.062H291.004V146.926ZM291.004 140.431H294.683C295.097 140.431 295.47 140.344 295.8 140.169C296.136 139.988 296.402 139.736 296.596 139.412C296.796 139.088 296.897 138.71 296.897 138.276C296.897 137.674 296.693 137.182 296.285 136.801C295.877 136.419 295.343 136.228 294.683 136.228H291.004V140.431ZM304.258 148.867C303.475 148.867 302.818 148.725 302.287 148.44C301.763 148.149 301.365 147.767 301.093 147.295C300.828 146.822 300.695 146.305 300.695 145.741C300.695 145.191 300.799 144.716 301.006 144.314C301.219 143.907 301.517 143.57 301.899 143.305C302.281 143.033 302.737 142.819 303.268 142.664C303.766 142.528 304.323 142.412 304.937 142.315C305.559 142.211 306.186 142.117 306.821 142.033C307.455 141.949 308.047 141.868 308.597 141.79L307.976 142.15C307.995 141.218 307.808 140.528 307.413 140.082C307.025 139.635 306.352 139.412 305.394 139.412C304.759 139.412 304.203 139.558 303.724 139.849C303.251 140.134 302.918 140.6 302.724 141.247L301.083 140.752C301.336 139.833 301.824 139.111 302.549 138.587C303.274 138.063 304.229 137.8 305.413 137.8C306.364 137.8 307.18 137.972 307.859 138.315C308.545 138.652 309.037 139.163 309.335 139.849C309.484 140.172 309.578 140.525 309.617 140.907C309.655 141.282 309.675 141.677 309.675 142.091V148.576H308.141V146.062L308.5 146.295C308.105 147.143 307.552 147.783 306.84 148.217C306.135 148.651 305.274 148.867 304.258 148.867ZM304.52 147.421C305.141 147.421 305.678 147.311 306.131 147.091C306.591 146.864 306.96 146.57 307.238 146.207C307.516 145.839 307.698 145.437 307.782 145.004C307.879 144.68 307.931 144.321 307.937 143.926C307.95 143.525 307.957 143.217 307.957 143.004L308.558 143.266C307.995 143.344 307.442 143.418 306.898 143.489C306.355 143.56 305.84 143.638 305.355 143.722C304.869 143.8 304.433 143.894 304.044 144.004C303.76 144.094 303.491 144.211 303.239 144.353C302.993 144.496 302.792 144.68 302.637 144.907C302.488 145.127 302.413 145.402 302.413 145.732C302.413 146.017 302.485 146.288 302.627 146.547C302.776 146.806 303.002 147.016 303.307 147.178C303.617 147.34 304.022 147.421 304.52 147.421ZM312.393 148.576V134.306H314.121V148.576H312.393ZM320.014 148.867C319.231 148.867 318.574 148.725 318.043 148.44C317.519 148.149 317.121 147.767 316.849 147.295C316.584 146.822 316.451 146.305 316.451 145.741C316.451 145.191 316.555 144.716 316.762 144.314C316.976 143.907 317.273 143.57 317.655 143.305C318.037 143.033 318.493 142.819 319.024 142.664C319.522 142.528 320.079 142.412 320.694 142.315C321.315 142.211 321.943 142.117 322.577 142.033C323.211 141.949 323.803 141.868 324.354 141.79L323.732 142.15C323.752 141.218 323.564 140.528 323.169 140.082C322.781 139.635 322.108 139.412 321.15 139.412C320.516 139.412 319.959 139.558 319.48 139.849C319.008 140.134 318.674 140.6 318.48 141.247L316.84 140.752C317.092 139.833 317.581 139.111 318.306 138.587C319.03 138.063 319.985 137.8 321.169 137.8C322.121 137.8 322.936 137.972 323.616 138.315C324.302 138.652 324.794 139.163 325.091 139.849C325.24 140.172 325.334 140.525 325.373 140.907C325.412 141.282 325.431 141.677 325.431 142.091V148.576H323.897V146.062L324.256 146.295C323.862 147.143 323.308 147.783 322.596 148.217C321.891 148.651 321.03 148.867 320.014 148.867ZM320.276 147.421C320.898 147.421 321.435 147.311 321.888 147.091C322.347 146.864 322.716 146.57 322.994 146.207C323.273 145.839 323.454 145.437 323.538 145.004C323.635 144.68 323.687 144.321 323.693 143.926C323.706 143.525 323.713 143.217 323.713 143.004L324.315 143.266C323.752 143.344 323.198 143.418 322.655 143.489C322.111 143.56 321.596 143.638 321.111 143.722C320.626 143.8 320.189 143.894 319.801 144.004C319.516 144.094 319.247 144.211 318.995 144.353C318.749 144.496 318.548 144.68 318.393 144.907C318.244 145.127 318.17 145.402 318.17 145.732C318.17 146.017 318.241 146.288 318.383 146.547C318.532 146.806 318.759 147.016 319.063 147.178C319.373 147.34 319.778 147.421 320.276 147.421ZM335.42 148.576V143.324C335.42 142.826 335.375 142.347 335.285 141.887C335.2 141.428 335.048 141.017 334.828 140.655C334.615 140.286 334.323 139.994 333.955 139.781C333.592 139.567 333.133 139.461 332.576 139.461C332.142 139.461 331.748 139.535 331.392 139.684C331.042 139.826 330.741 140.046 330.489 140.344C330.236 140.642 330.039 141.017 329.897 141.47C329.761 141.917 329.693 142.444 329.693 143.052L328.557 142.703C328.557 141.687 328.738 140.816 329.101 140.092C329.47 139.36 329.984 138.8 330.644 138.412C331.311 138.017 332.094 137.82 332.993 137.82C333.673 137.82 334.252 137.927 334.731 138.14C335.21 138.354 335.608 138.639 335.925 138.995C336.242 139.344 336.492 139.739 336.673 140.179C336.854 140.613 336.98 141.056 337.051 141.509C337.129 141.955 337.168 142.379 337.168 142.781V148.576H335.42ZM327.945 148.576V138.092H329.499V140.897H329.693V148.576H327.945ZM344.014 148.867C342.953 148.867 342.05 148.631 341.305 148.159C340.568 147.68 340.005 147.023 339.616 146.188C339.228 145.353 339.027 144.402 339.014 143.334C339.027 142.24 339.231 141.279 339.626 140.451C340.027 139.616 340.6 138.965 341.344 138.499C342.089 138.033 342.985 137.8 344.033 137.8C345.14 137.8 346.091 138.072 346.887 138.616C347.69 139.16 348.227 139.904 348.499 140.849L346.79 141.363C346.57 140.755 346.211 140.282 345.713 139.946C345.221 139.609 344.655 139.441 344.014 139.441C343.296 139.441 342.703 139.609 342.237 139.946C341.771 140.276 341.425 140.735 341.199 141.324C340.972 141.907 340.856 142.577 340.849 143.334C340.862 144.499 341.131 145.441 341.655 146.159C342.186 146.871 342.972 147.227 344.014 147.227C344.7 147.227 345.27 147.071 345.723 146.761C346.176 146.444 346.519 145.987 346.752 145.392L348.499 145.848C348.137 146.826 347.57 147.573 346.8 148.091C346.03 148.609 345.101 148.867 344.014 148.867ZM354.739 148.867C353.71 148.867 352.811 148.641 352.04 148.188C351.277 147.728 350.681 147.091 350.254 146.275C349.827 145.453 349.613 144.496 349.613 143.402C349.613 142.256 349.824 141.266 350.244 140.431C350.665 139.59 351.251 138.943 352.002 138.49C352.759 138.03 353.645 137.8 354.661 137.8C355.716 137.8 356.613 138.043 357.351 138.529C358.095 139.014 358.651 139.706 359.02 140.606C359.396 141.506 359.557 142.577 359.506 143.819H357.758V143.198C357.739 141.91 357.477 140.949 356.972 140.315C356.467 139.674 355.716 139.354 354.72 139.354C353.652 139.354 352.84 139.697 352.283 140.383C351.726 141.069 351.448 142.053 351.448 143.334C351.448 144.57 351.726 145.528 352.283 146.207C352.84 146.887 353.632 147.227 354.661 147.227C355.354 147.227 355.956 147.068 356.467 146.751C356.978 146.434 357.38 145.978 357.671 145.382L359.331 145.955C358.923 146.881 358.308 147.599 357.486 148.11C356.671 148.615 355.755 148.867 354.739 148.867ZM350.866 143.819V142.431H358.613V143.819H350.866Z" fill="#161616"/>
<path d="M246.925 187.455V184.825H249.599V187.455H246.925ZM246.925 169.703V167.074H249.599V169.703H246.925ZM248.323 185.58C247.199 185.58 246.193 185.373 245.306 184.959C244.418 184.544 243.689 183.96 243.12 183.206C242.558 182.451 242.199 181.556 242.044 180.521L244.684 180.099C244.891 181.009 245.335 181.734 246.016 182.274C246.703 182.806 247.524 183.073 248.479 183.073C249.396 183.073 250.15 182.858 250.742 182.429C251.334 181.993 251.63 181.442 251.63 180.776C251.63 180.31 251.489 179.933 251.208 179.644C250.927 179.348 250.476 179.104 249.854 178.912L246.005 177.714C243.763 177.019 242.643 175.658 242.643 173.631C242.643 172.684 242.868 171.86 243.32 171.157C243.778 170.447 244.422 169.903 245.25 169.526C246.078 169.141 247.055 168.953 248.179 168.96C249.222 168.968 250.15 169.156 250.964 169.526C251.785 169.896 252.465 170.428 253.005 171.124C253.553 171.819 253.941 172.655 254.17 173.631L251.43 174.13C251.326 173.605 251.123 173.143 250.82 172.743C250.516 172.344 250.135 172.033 249.677 171.811C249.218 171.59 248.708 171.471 248.146 171.456C247.606 171.449 247.121 171.534 246.692 171.712C246.263 171.882 245.923 172.126 245.672 172.444C245.42 172.754 245.294 173.106 245.294 173.498C245.294 173.934 245.468 174.308 245.816 174.618C246.171 174.929 246.729 175.195 247.491 175.417L250.365 176.249C251.748 176.649 252.743 177.192 253.349 177.88C253.963 178.561 254.27 179.467 254.27 180.598C254.27 181.59 254.022 182.459 253.527 183.206C253.031 183.953 252.336 184.537 251.441 184.959C250.546 185.373 249.507 185.58 248.323 185.58ZM259.45 185.247V172.189L256.454 174.019V171.068L259.45 169.271H262.179V185.247H259.45ZM272.153 185.58C271.021 185.58 270.022 185.34 269.157 184.859C268.292 184.371 267.615 183.694 267.127 182.828C266.646 181.963 266.406 180.965 266.406 179.833V174.685C266.406 173.553 266.646 172.555 267.127 171.689C267.615 170.824 268.292 170.151 269.157 169.67C270.022 169.182 271.021 168.938 272.153 168.938C273.284 168.938 274.279 169.182 275.137 169.67C276.002 170.151 276.679 170.824 277.167 171.689C277.655 172.555 277.9 173.553 277.9 174.685V179.833C277.9 180.965 277.655 181.963 277.167 182.828C276.679 183.694 276.002 184.371 275.137 184.859C274.279 185.34 273.284 185.58 272.153 185.58ZM272.153 183.039C272.715 183.039 273.225 182.906 273.684 182.64C274.142 182.366 274.505 182.004 274.771 181.553C275.037 181.094 275.17 180.584 275.17 180.021V174.485C275.17 173.916 275.037 173.405 274.771 172.954C274.505 172.496 274.142 172.133 273.684 171.867C273.225 171.593 272.715 171.456 272.153 171.456C271.59 171.456 271.08 171.593 270.621 171.867C270.163 172.133 269.8 172.496 269.534 172.954C269.268 173.405 269.135 173.916 269.135 174.485V180.021C269.135 180.584 269.268 181.094 269.534 181.553C269.8 182.004 270.163 182.366 270.621 182.64C271.08 182.906 271.59 183.039 272.153 183.039ZM280.789 188.076L280.944 186.922C281.284 186.952 281.554 186.893 281.754 186.745C281.954 186.604 282.087 186.401 282.153 186.135C282.227 185.876 282.246 185.58 282.209 185.247H280.789V182.396H283.529V185.358C283.529 186.327 283.3 187.059 282.841 187.555C282.383 188.05 281.698 188.224 280.789 188.076ZM293.497 185.58C292.365 185.58 291.367 185.34 290.501 184.859C289.636 184.371 288.959 183.694 288.471 182.828C287.99 181.963 287.75 180.965 287.75 179.833V174.685C287.75 173.553 287.99 172.555 288.471 171.689C288.959 170.824 289.636 170.151 290.501 169.67C291.367 169.182 292.365 168.938 293.497 168.938C294.628 168.938 295.623 169.182 296.481 169.67C297.347 170.151 298.023 170.824 298.512 171.689C299 172.555 299.244 173.553 299.244 174.685V179.833C299.244 180.965 299 181.963 298.512 182.828C298.023 183.694 297.347 184.371 296.481 184.859C295.623 185.34 294.628 185.58 293.497 185.58ZM293.497 183.039C294.059 183.039 294.569 182.906 295.028 182.64C295.486 182.366 295.849 182.004 296.115 181.553C296.381 181.094 296.514 180.584 296.514 180.021V174.485C296.514 173.916 296.381 173.405 296.115 172.954C295.849 172.496 295.486 172.133 295.028 171.867C294.569 171.593 294.059 171.456 293.497 171.456C292.935 171.456 292.424 171.593 291.966 171.867C291.507 172.133 291.145 172.496 290.878 172.954C290.612 173.405 290.479 173.916 290.479 174.485V180.021C290.479 180.584 290.612 181.094 290.878 181.553C291.145 182.004 291.507 182.366 291.966 182.64C292.424 182.906 292.935 183.039 293.497 183.039ZM308.102 185.58C306.97 185.58 305.972 185.34 305.106 184.859C304.241 184.371 303.564 183.694 303.076 182.828C302.595 181.963 302.355 180.965 302.355 179.833V174.685C302.355 173.553 302.595 172.555 303.076 171.689C303.564 170.824 304.241 170.151 305.106 169.67C305.972 169.182 306.97 168.938 308.102 168.938C309.233 168.938 310.228 169.182 311.086 169.67C311.952 170.151 312.628 170.824 313.117 171.689C313.605 172.555 313.849 173.553 313.849 174.685V179.833C313.849 180.965 313.605 181.963 313.117 182.828C312.628 183.694 311.952 184.371 311.086 184.859C310.228 185.34 309.233 185.58 308.102 185.58ZM308.102 183.039C308.664 183.039 309.174 182.906 309.633 182.64C310.091 182.366 310.454 182.004 310.72 181.553C310.986 181.094 311.12 180.584 311.12 180.021V174.485C311.12 173.916 310.986 173.405 310.72 172.954C310.454 172.496 310.091 172.133 309.633 171.867C309.174 171.593 308.664 171.456 308.102 171.456C307.54 171.456 307.029 171.593 306.571 171.867C306.112 172.133 305.75 172.496 305.483 172.954C305.217 173.405 305.084 173.916 305.084 174.485V180.021C305.084 180.584 305.217 181.094 305.483 181.553C305.75 182.004 306.112 182.366 306.571 182.64C307.029 182.906 307.54 183.039 308.102 183.039ZM322.707 185.58C321.575 185.58 320.577 185.34 319.711 184.859C318.846 184.371 318.169 183.694 317.681 182.828C317.2 181.963 316.96 180.965 316.96 179.833V174.685C316.96 173.553 317.2 172.555 317.681 171.689C318.169 170.824 318.846 170.151 319.711 169.67C320.577 169.182 321.575 168.938 322.707 168.938C323.839 168.938 324.833 169.182 325.691 169.67C326.557 170.151 327.233 170.824 327.722 171.689C328.21 172.555 328.454 173.553 328.454 174.685V179.833C328.454 180.965 328.21 181.963 327.722 182.828C327.233 183.694 326.557 184.371 325.691 184.859C324.833 185.34 323.839 185.58 322.707 185.58ZM322.707 183.039C323.269 183.039 323.779 182.906 324.238 182.64C324.697 182.366 325.059 182.004 325.325 181.553C325.591 181.094 325.725 180.584 325.725 180.021V174.485C325.725 173.916 325.591 173.405 325.325 172.954C325.059 172.496 324.697 172.133 324.238 171.867C323.779 171.593 323.269 171.456 322.707 171.456C322.145 171.456 321.634 171.593 321.176 171.867C320.717 172.133 320.355 172.496 320.089 172.954C319.822 173.405 319.689 173.916 319.689 174.485V180.021C319.689 180.584 319.822 181.094 320.089 181.553C320.355 182.004 320.717 182.366 321.176 182.64C321.634 182.906 322.145 183.039 322.707 183.039Z" fill="#161616"/>
<path d="M487.525 180.245V176.801H484.082V175.476H487.525V172.042H488.85V175.476H492.285V176.801H488.85V180.245H487.525ZM494.272 182.625L494.281 181.182L500.041 175.999C500.522 175.566 500.843 175.158 501.005 174.773C501.174 174.383 501.258 173.983 501.258 173.574C501.258 173.076 501.144 172.625 500.915 172.222C500.687 171.82 500.374 171.501 499.978 171.267C499.587 171.032 499.142 170.915 498.644 170.915C498.127 170.915 497.667 171.038 497.264 171.285C496.862 171.525 496.543 171.847 496.309 172.249C496.08 172.652 495.969 173.091 495.975 173.565H494.335C494.335 172.748 494.524 172.027 494.903 171.402C495.281 170.771 495.795 170.278 496.444 169.923C497.099 169.563 497.841 169.383 498.671 169.383C499.476 169.383 500.197 169.569 500.834 169.942C501.471 170.308 501.973 170.81 502.339 171.447C502.712 172.078 502.898 172.793 502.898 173.592C502.898 174.157 502.826 174.647 502.682 175.062C502.544 175.476 502.327 175.861 502.033 176.216C501.738 176.564 501.369 176.937 500.924 177.333L496.138 181.633L495.93 181.092H502.898V182.625H494.272ZM509.436 182.904C508.595 182.904 507.843 182.715 507.182 182.336C506.527 181.952 506.008 181.432 505.623 180.777C505.244 180.116 505.055 179.365 505.055 178.523V173.764C505.055 172.922 505.244 172.171 505.623 171.51C506.008 170.849 506.527 170.329 507.182 169.951C507.843 169.572 508.595 169.383 509.436 169.383C510.277 169.383 511.029 169.572 511.69 169.951C512.351 170.329 512.87 170.849 513.249 171.51C513.628 172.171 513.817 172.922 513.817 173.764V178.523C513.817 179.365 513.628 180.116 513.249 180.777C512.87 181.432 512.351 181.952 511.69 182.336C511.029 182.715 510.277 182.904 509.436 182.904ZM509.436 181.363C509.947 181.363 510.41 181.24 510.824 180.993C511.239 180.747 511.569 180.416 511.816 180.002C512.062 179.581 512.185 179.118 512.185 178.613V173.664C512.185 173.154 512.062 172.691 511.816 172.276C511.569 171.862 511.239 171.531 510.824 171.285C510.41 171.038 509.947 170.915 509.436 170.915C508.931 170.915 508.468 171.038 508.048 171.285C507.633 171.531 507.303 171.862 507.056 172.276C506.81 172.691 506.687 173.154 506.687 173.664V178.613C506.687 179.118 506.81 179.581 507.056 180.002C507.303 180.416 507.633 180.747 508.048 180.993C508.468 181.24 508.931 181.363 509.436 181.363ZM517.783 182.634L516.701 181.552L528.618 169.653L529.7 170.735L517.783 182.634ZM526.996 182.904C526.401 182.904 525.857 182.76 525.364 182.472C524.877 182.177 524.487 181.786 524.192 181.3C523.898 180.807 523.75 180.26 523.75 179.659C523.75 179.07 523.901 178.529 524.201 178.036C524.502 177.544 524.898 177.15 525.391 176.856C525.884 176.561 526.419 176.414 526.996 176.414C527.591 176.414 528.134 176.561 528.627 176.856C529.12 177.144 529.511 177.535 529.799 178.027C530.094 178.514 530.241 179.058 530.241 179.659C530.241 180.26 530.094 180.807 529.799 181.3C529.511 181.786 529.12 182.177 528.627 182.472C528.134 182.76 527.591 182.904 526.996 182.904ZM526.996 181.489C527.326 181.489 527.63 181.405 527.906 181.237C528.189 181.068 528.411 180.846 528.573 180.569C528.741 180.293 528.826 179.99 528.826 179.659C528.826 179.329 528.741 179.025 528.573 178.749C528.411 178.466 528.189 178.244 527.906 178.082C527.63 177.913 527.326 177.829 526.996 177.829C526.665 177.829 526.362 177.913 526.085 178.082C525.809 178.244 525.586 178.466 525.418 178.749C525.25 179.025 525.166 179.329 525.166 179.659C525.166 179.99 525.25 180.293 525.418 180.569C525.586 180.846 525.809 181.068 526.085 181.237C526.362 181.405 526.665 181.489 526.996 181.489ZM519.406 175.873C518.811 175.873 518.267 175.729 517.774 175.44C517.281 175.146 516.887 174.755 516.593 174.268C516.305 173.776 516.16 173.229 516.16 172.628C516.16 172.039 516.311 171.498 516.611 171.005C516.912 170.512 517.308 170.119 517.801 169.824C518.294 169.53 518.829 169.383 519.406 169.383C520 169.383 520.541 169.53 521.028 169.824C521.521 170.113 521.915 170.503 522.209 170.996C522.503 171.483 522.651 172.027 522.651 172.628C522.651 173.229 522.503 173.776 522.209 174.268C521.915 174.755 521.521 175.146 521.028 175.44C520.541 175.729 520 175.873 519.406 175.873ZM519.406 174.458C519.736 174.458 520.04 174.374 520.316 174.205C520.598 174.037 520.821 173.815 520.983 173.538C521.151 173.262 521.235 172.958 521.235 172.628C521.235 172.297 521.151 171.994 520.983 171.717C520.821 171.435 520.598 171.213 520.316 171.05C520.04 170.882 519.736 170.798 519.406 170.798C519.075 170.798 518.771 170.882 518.495 171.05C518.219 171.213 517.996 171.435 517.828 171.717C517.66 171.994 517.576 172.297 517.576 172.628C517.576 172.958 517.66 173.262 517.828 173.538C517.996 173.815 518.219 174.037 518.495 174.205C518.771 174.374 519.075 174.458 519.406 174.458Z" fill="#FFA051"/>
<path d="M240.775 204.699H241.885V212.465H240.609V206.063L239.045 206.507L238.734 205.42L240.775 204.699ZM248.454 211.511C247.921 212.243 247.174 212.609 246.213 212.609C245.251 212.609 244.5 212.243 243.96 211.511C243.428 210.778 243.162 209.802 243.162 208.582C243.162 207.361 243.428 206.385 243.96 205.653C244.5 204.92 245.251 204.554 246.213 204.554C247.174 204.554 247.921 204.92 248.454 205.653C248.994 206.385 249.264 207.361 249.264 208.582C249.264 209.802 248.994 210.778 248.454 211.511ZM246.213 211.366C246.79 211.366 247.23 211.126 247.533 210.645C247.836 210.165 247.988 209.477 247.988 208.582C247.988 207.687 247.836 206.999 247.533 206.518C247.23 206.037 246.79 205.797 246.213 205.797C245.643 205.797 245.203 206.037 244.892 206.518C244.589 206.999 244.438 207.687 244.438 208.582C244.438 209.477 244.589 210.165 244.892 210.645C245.203 211.126 245.643 211.366 246.213 211.366ZM255.309 212.465H253.878L251.603 209.902V212.465H250.405V204.699H251.603V209.369L253.756 206.918H255.22L252.779 209.636L255.309 212.465Z" fill="#718EBF"/>
<path d="M251.064 236.229V237.417H250.176V238.814H248.889V237.417H245.072V236.229L247.746 231.048H249.133L246.459 236.229H248.889V234.21H250.176V236.229H251.064ZM256.856 238.814H255.425L253.15 236.252V238.814H251.952V231.048H253.15V235.719L255.303 233.267H256.767L254.326 235.985L256.856 238.814Z" fill="#718EBF"/>
<path d="M244.725 265.165V264.166L247.432 261.403C248.09 260.745 248.419 260.176 248.419 259.695C248.419 259.318 248.304 259.026 248.075 258.818C247.853 258.604 247.569 258.497 247.221 258.497C246.57 258.497 246.089 258.818 245.779 259.462L244.702 258.83C244.947 258.312 245.29 257.92 245.734 257.653C246.178 257.387 246.67 257.254 247.21 257.254C247.89 257.254 248.475 257.469 248.963 257.898C249.451 258.327 249.695 258.911 249.695 259.651C249.695 260.442 249.255 261.285 248.375 262.18L246.622 263.933H249.839V265.165H244.725ZM255.856 265.165H254.425L252.15 262.602V265.165H250.952V257.398H252.15V262.069L254.303 259.617H255.767L253.326 262.335L255.856 265.165Z" fill="#718EBF"/>
<path d="M253.871 291.947C253.338 292.679 252.591 293.045 251.63 293.045C250.668 293.045 249.917 292.679 249.377 291.947C248.845 291.214 248.579 290.238 248.579 289.018C248.579 287.797 248.845 286.821 249.377 286.089C249.917 285.357 250.668 284.99 251.63 284.99C252.591 284.99 253.338 285.357 253.871 286.089C254.411 286.821 254.681 287.797 254.681 289.018C254.681 290.238 254.411 291.214 253.871 291.947ZM251.63 291.803C252.206 291.803 252.647 291.562 252.95 291.081C253.253 290.601 253.405 289.913 253.405 289.018C253.405 288.123 253.253 287.435 252.95 286.954C252.647 286.473 252.206 286.233 251.63 286.233C251.06 286.233 250.62 286.473 250.309 286.954C250.006 287.435 249.854 288.123 249.854 289.018C249.854 289.913 250.006 290.601 250.309 291.081C250.62 291.562 251.06 291.803 251.63 291.803Z" fill="#718EBF"/>
<path d="M285.771 309.688C285.024 309.688 284.388 309.518 283.863 309.177C283.345 308.837 282.983 308.371 282.776 307.779L283.874 307.136C284.185 308.009 284.828 308.445 285.804 308.445C286.285 308.445 286.644 308.353 286.881 308.168C287.125 307.975 287.247 307.728 287.247 307.424C287.247 307.106 287.117 306.866 286.858 306.703C286.6 306.533 286.141 306.348 285.483 306.148C285.113 306.038 284.813 305.934 284.584 305.838C284.355 305.742 284.111 305.609 283.852 305.438C283.6 305.261 283.412 305.043 283.286 304.784C283.16 304.525 283.097 304.222 283.097 303.874C283.097 303.186 283.341 302.643 283.83 302.243C284.318 301.836 284.906 301.633 285.594 301.633C286.215 301.633 286.759 301.785 287.225 302.088C287.691 302.391 288.049 302.809 288.301 303.342L287.225 303.963C286.899 303.238 286.356 302.876 285.594 302.876C285.224 302.876 284.928 302.964 284.706 303.142C284.484 303.312 284.373 303.545 284.373 303.841C284.373 304.129 284.484 304.359 284.706 304.529C284.935 304.691 285.346 304.865 285.938 305.05C286.233 305.146 286.448 305.22 286.581 305.272C286.722 305.316 286.914 305.39 287.158 305.494C287.41 305.597 287.598 305.701 287.724 305.805C287.85 305.908 287.983 306.038 288.123 306.193C288.271 306.348 288.375 306.526 288.434 306.725C288.493 306.925 288.523 307.151 288.523 307.402C288.523 308.105 288.267 308.663 287.757 309.077C287.254 309.484 286.592 309.688 285.771 309.688Z" fill="#718EBF"/>
<path d="M267.539 282.901C267.539 280.603 269.402 278.741 271.7 278.741H291.115C293.413 278.741 295.276 280.603 295.276 282.901V295.383H267.539V282.901Z" fill="#E8F2FF"/>
<path d="M318.748 301.777V309.543H317.473V304.007L315.109 307.913H314.954L312.591 303.996V309.543H311.315V301.777H312.691L315.032 305.66L317.384 301.777H318.748Z" fill="#718EBF"/>
<path d="M300.822 274.58C300.822 272.283 302.685 270.42 304.983 270.42H324.398C326.696 270.42 328.559 272.283 328.559 274.58V295.383H300.822V274.58Z" fill="#E8F2FF"/>
<path d="M351.03 301.777V302.998H348.844V309.543H347.569V302.998H345.372V301.777H351.03Z" fill="#718EBF"/>
<path d="M334.107 241.297C334.107 238.999 335.97 237.136 338.268 237.136H357.684C359.981 237.136 361.844 238.999 361.844 241.297V295.383H334.107V241.297Z" fill="#E8F2FF"/>
<path d="M378.588 309.543L376.391 301.777H377.733L379.364 307.846L381.128 301.777H382.304L384.057 307.846L385.688 301.777H387.031L384.834 309.543H383.358L381.716 303.874L380.063 309.543H378.588Z" fill="#718EBF"/>
<path d="M367.391 256.552C367.391 254.254 369.253 252.391 371.551 252.391H390.967C393.265 252.391 395.127 254.254 395.127 256.552V295.383H367.391V256.552Z" fill="#FFA051"/>
<path d="M417.6 301.778V302.998H415.415V309.544H414.139V302.998H411.942V301.778H417.6Z" fill="#718EBF"/>
<path d="M400.676 217.721C400.676 215.423 402.538 213.56 404.836 213.56H424.252C426.55 213.56 428.412 215.423 428.412 217.721V295.383H400.676V217.721Z" fill="#FFA051"/>
<path d="M451.896 302.998H448.623V305.172H451.785V306.393H448.623V309.543H447.347V301.777H451.896V302.998Z" fill="#718EBF"/>
<path d="M433.959 282.902C433.959 280.604 435.822 278.741 438.119 278.741H457.535C459.833 278.741 461.696 280.604 461.696 282.902V295.383H433.959V282.902Z" fill="#E8F2FF"/>
<path d="M481.974 309.688C481.227 309.688 480.591 309.518 480.066 309.177C479.548 308.837 479.186 308.371 478.979 307.779L480.077 307.136C480.388 308.009 481.031 308.445 482.008 308.445C482.488 308.445 482.847 308.353 483.084 308.168C483.328 307.975 483.45 307.728 483.45 307.424C483.45 307.106 483.32 306.866 483.062 306.703C482.803 306.533 482.344 306.348 481.686 306.148C481.316 306.038 481.016 305.934 480.787 305.838C480.558 305.742 480.314 305.609 480.055 305.438C479.803 305.261 479.615 305.043 479.489 304.784C479.363 304.525 479.301 304.222 479.301 303.874C479.301 303.186 479.545 302.643 480.033 302.243C480.521 301.836 481.109 301.633 481.797 301.633C482.418 301.633 482.962 301.785 483.428 302.088C483.894 302.391 484.252 302.809 484.504 303.342L483.428 303.963C483.102 303.238 482.559 302.876 481.797 302.876C481.427 302.876 481.131 302.964 480.909 303.142C480.687 303.312 480.576 303.545 480.576 303.841C480.576 304.129 480.687 304.359 480.909 304.529C481.139 304.691 481.549 304.865 482.141 305.05C482.437 305.146 482.651 305.22 482.784 305.272C482.925 305.316 483.117 305.39 483.361 305.494C483.613 305.597 483.801 305.701 483.927 305.805C484.053 305.908 484.186 306.038 484.326 306.193C484.474 306.348 484.578 306.526 484.637 306.725C484.696 306.925 484.726 307.151 484.726 307.402C484.726 308.105 484.471 308.663 483.96 309.077C483.457 309.484 482.795 309.688 481.974 309.688Z" fill="#718EBF"/>
<path d="M467.242 256.552C467.242 254.254 469.105 252.391 471.403 252.391H490.818C493.116 252.391 494.979 254.254 494.979 256.552V295.383H467.242V256.552Z" fill="#FFA051"/>
<path d="M516.648 309.688C515.901 309.688 515.265 309.518 514.74 309.177C514.222 308.837 513.86 308.371 513.653 307.779L514.751 307.136C515.062 308.009 515.705 308.445 516.681 308.445C517.162 308.445 517.521 308.353 517.758 308.168C518.002 307.975 518.124 307.728 518.124 307.424C518.124 307.106 517.994 306.866 517.735 306.703C517.477 306.533 517.018 306.348 516.36 306.148C515.99 306.038 515.69 305.934 515.461 305.838C515.232 305.742 514.988 305.609 514.729 305.438C514.477 305.261 514.289 305.043 514.163 304.784C514.037 304.525 513.974 304.222 513.974 303.874C513.974 303.186 514.218 302.643 514.707 302.243C515.195 301.836 515.783 301.633 516.471 301.633C517.092 301.633 517.636 301.785 518.102 302.088C518.568 302.391 518.926 302.809 519.178 303.342L518.102 303.963C517.776 303.238 517.232 302.876 516.471 302.876C516.101 302.876 515.805 302.964 515.583 303.142C515.361 303.312 515.25 303.545 515.25 303.841C515.25 304.129 515.361 304.359 515.583 304.529C515.812 304.691 516.223 304.865 516.815 305.05C517.11 305.146 517.325 305.22 517.458 305.272C517.599 305.316 517.791 305.39 518.035 305.494C518.286 305.597 518.475 305.701 518.601 305.805C518.727 305.908 518.86 306.038 519 306.193C519.148 306.348 519.252 306.526 519.311 306.725C519.37 306.925 519.4 307.151 519.4 307.402C519.4 308.105 519.144 308.663 518.634 309.077C518.131 309.484 517.469 309.688 516.648 309.688Z" fill="#718EBF"/>
<path d="M500.527 235.749C500.527 233.452 502.39 231.589 504.688 231.589H524.103C526.401 231.589 528.264 233.452 528.264 235.749V295.383H500.527V235.749Z" fill="#FFA051"/>
</g>
<defs>
<filter id="filter0_dddddd_1846_2711" x="108.053" y="102.202" width="558.893" height="484.415" filterUnits="userSpaceOnUse" color-interpolation-filters="sRGB">
<feFlood flood-opacity="0" result="BackgroundImageFix"/>
<feColorMatrix in="SourceAlpha" type="matrix" values="0 0 0 0 0 0 0 0 0 0 0 0 0 0 0 0 0 0 127 0" result="hardAlpha"/>
<feOffset dy="2.56821"/>
<feGaussianBlur stdDeviation="2.18298"/>
<feColorMatrix type="matrix" values="0 0 0 0 0 0 0 0 0 0 0 0 0 0 0 0 0 0 0.01 0"/>
<feBlend mode="normal" in2="BackgroundImageFix" result="effect1_dropShadow_1846_2711"/>
<feColorMatrix in="SourceAlpha" type="matrix" values="0 0 0 0 0 0 0 0 0 0 0 0 0 0 0 0 0 0 127 0" result="hardAlpha"/>
<feOffset dy="11.3001"/>
<feGaussianBlur stdDeviation="4.52004"/>
<feColorMatrix type="matrix" values="0 0 0 0 0 0 0 0 0 0 0 0 0 0 0 0 0 0 0.0117778 0"/>
<feBlend mode="normal" in2="effect1_dropShadow_1846_2711" result="effect2_dropShadow_1846_2711"/>
<feColorMatrix in="SourceAlpha" type="matrix" values="0 0 0 0 0 0 0 0 0 0 0 0 0 0 0 0 0 0 127 0" result="hardAlpha"/>
<feOffset dy="27.7366"/>
<feGaussianBlur stdDeviation="9.0144"/>
<feColorMatrix type="matrix" values="0 0 0 0 0 0 0 0 0 0 0 0 0 0 0 0 0 0 0.015 0"/>
<feBlend mode="normal" in2="effect2_dropShadow_1846_2711" result="effect3_dropShadow_1846_2711"/>
<feColorMatrix in="SourceAlpha" type="matrix" values="0 0 0 0 0 0 0 0 0 0 0 0 0 0 0 0 0 0 127 0" result="hardAlpha"/>
<feOffset dy="53.4187"/>
<feGaussianBlur stdDeviation="17.6693"/>
<feColorMatrix type="matrix" values="0 0 0 0 0 0 0 0 0 0 0 0 0 0 0 0 0 0 0.0182222 0"/>
<feBlend mode="normal" in2="effect3_dropShadow_1846_2711" result="effect4_dropShadow_1846_2711"/>
<feColorMatrix in="SourceAlpha" type="matrix" values="0 0 0 0 0 0 0 0 0 0 0 0 0 0 0 0 0 0 127 0" result="hardAlpha"/>
<feOffset dy="89.8872"/>
<feGaussianBlur stdDeviation="32.4878"/>
<feColorMatrix type="matrix" values="0 0 0 0 0 0 0 0 0 0 0 0 0 0 0 0 0 0 0.0227778 0"/>
<feBlend mode="normal" in2="effect4_dropShadow_1846_2711" result="effect5_dropShadow_1846_2711"/>
<feColorMatrix in="SourceAlpha" type="matrix" values="0 0 0 0 0 0 0 0 0 0 0 0 0 0 0 0 0 0 127 0" result="hardAlpha"/>
<feOffset dy="138.683"/>
<feGaussianBlur stdDeviation="55.4733"/>
<feColorMatrix type="matrix" values="0 0 0 0 0 0 0 0 0 0 0 0 0 0 0 0 0 0 0.03 0"/>
<feBlend mode="normal" in2="effect5_dropShadow_1846_2711" result="effect6_dropShadow_1846_2711"/>
<feBlend mode="normal" in="SourceGraphic" in2="effect6_dropShadow_1846_2711" result="shape"/>
</filter>
<clipPath id="clip0_1846_2711">
<rect width="1440" height="532" fill="white"/>
</clipPath>
</defs>
</svg>
