<svg width="559" height="430" viewBox="0 0 559 430" fill="none" xmlns="http://www.w3.org/2000/svg">
<g filter="url(#filter0_dddddd_1589_6353)">
<rect x="111" y="2" width="337" height="232.988" rx="10" fill="white"/>
</g>
<path d="M135.485 46.5762V34.2375H130.718V32.5969H141.979V34.2375H137.213V46.5762H135.485ZM146.436 46.8674C145.394 46.8674 144.494 46.6312 143.737 46.1587C142.986 45.6863 142.407 45.0326 141.999 44.1978C141.592 43.3629 141.388 42.405 141.388 41.3242C141.388 40.224 141.595 39.2597 142.009 38.4313C142.423 37.6029 143.009 36.959 143.766 36.4995C144.523 36.0335 145.413 35.8005 146.436 35.8005C147.484 35.8005 148.387 36.0367 149.144 36.5092C149.902 36.9751 150.481 37.6256 150.882 38.4604C151.29 39.2888 151.494 40.2434 151.494 41.3242C151.494 42.418 151.29 43.3823 150.882 44.2172C150.474 45.0456 149.892 45.696 149.135 46.1684C148.377 46.6344 147.478 46.8674 146.436 46.8674ZM146.436 45.2268C147.523 45.2268 148.332 44.8644 148.863 44.1395C149.393 43.4147 149.659 42.4762 149.659 41.3242C149.659 40.1399 149.39 39.1982 148.853 38.4993C148.316 37.7938 147.51 37.4411 146.436 37.4411C145.705 37.4411 145.103 37.6061 144.63 37.9362C144.158 38.2663 143.805 38.7225 143.572 39.305C143.339 39.8875 143.223 40.5606 143.223 41.3242C143.223 42.5021 143.494 43.447 144.038 44.1589C144.582 44.8708 145.381 45.2268 146.436 45.2268ZM159.485 46.5762C158.863 46.6991 158.249 46.7477 157.64 46.7218C157.038 46.7024 156.501 46.5826 156.029 46.3626C155.556 46.1361 155.197 45.7866 154.951 45.3142C154.744 44.9 154.631 44.4825 154.611 44.0618C154.599 43.6347 154.592 43.1525 154.592 42.6154V33.1794H156.32V42.5377C156.32 42.9649 156.323 43.3305 156.33 43.6347C156.343 43.9389 156.411 44.201 156.534 44.421C156.767 44.8352 157.136 45.0779 157.64 45.1491C158.152 45.2203 158.766 45.2009 159.485 45.0909V46.5762ZM152.466 37.5188V36.0917H159.485V37.5188H152.466ZM164.594 46.8674C163.811 46.8674 163.154 46.725 162.623 46.4403C162.099 46.149 161.701 45.7672 161.429 45.2947C161.164 44.8223 161.031 44.3045 161.031 43.7415C161.031 43.1914 161.134 42.7157 161.342 42.3144C161.555 41.9067 161.853 41.5702 162.235 41.3048C162.617 41.033 163.073 40.8194 163.603 40.6641C164.102 40.5282 164.658 40.4117 165.273 40.3146C165.895 40.2111 166.522 40.1172 167.157 40.0331C167.791 39.949 168.383 39.8681 168.933 39.7904L168.312 40.1496C168.331 39.2176 168.144 38.5284 167.749 38.0818C167.36 37.6353 166.687 37.412 165.73 37.412C165.095 37.412 164.539 37.5576 164.06 37.8488C163.587 38.1336 163.254 38.5996 163.06 39.2468L161.419 38.7517C161.672 37.8327 162.16 37.111 162.885 36.5868C163.61 36.0626 164.565 35.8005 165.749 35.8005C166.7 35.8005 167.516 35.972 168.195 36.315C168.881 36.6515 169.373 37.1628 169.671 37.8488C169.82 38.1724 169.914 38.5252 169.952 38.907C169.991 39.2824 170.011 39.6771 170.011 40.0913V46.5762H168.477V44.0618L168.836 44.2948C168.441 45.1427 167.888 45.7834 167.176 46.217C166.471 46.6506 165.61 46.8674 164.594 46.8674ZM164.856 45.4209C165.477 45.4209 166.014 45.3109 166.467 45.0909C166.927 44.8644 167.296 44.5699 167.574 44.2075C167.852 43.8386 168.033 43.4373 168.118 43.0037C168.215 42.6801 168.266 42.3209 168.273 41.9261C168.286 41.5249 168.292 41.2175 168.292 41.0039L168.894 41.266C168.331 41.3437 167.778 41.4181 167.234 41.4893C166.691 41.5605 166.176 41.6381 165.691 41.7223C165.205 41.7999 164.768 41.8938 164.38 42.0038C164.095 42.0944 163.827 42.2109 163.574 42.3533C163.328 42.4957 163.128 42.6801 162.972 42.9066C162.824 43.1267 162.749 43.4017 162.749 43.7318C162.749 44.0165 162.82 44.2884 162.963 44.5472C163.112 44.8061 163.338 45.0164 163.642 45.1782C163.953 45.34 164.357 45.4209 164.856 45.4209ZM172.729 46.5762V32.3057H174.457V46.5762H172.729ZM181.257 46.5762V32.5969H186.703C187.538 32.5969 188.249 32.7684 188.838 33.1114C189.434 33.4544 189.887 33.9075 190.197 34.4705C190.515 35.0271 190.673 35.629 190.673 36.2762C190.673 37.0334 190.479 37.6968 190.091 38.2663C189.702 38.8358 189.178 39.2274 188.518 39.4409L188.499 38.9652C189.398 39.2047 190.097 39.6448 190.595 40.2855C191.094 40.9262 191.343 41.6899 191.343 42.5766C191.343 43.392 191.175 44.0974 190.838 44.6929C190.508 45.2883 190.029 45.751 189.401 46.0811C188.78 46.4111 188.042 46.5762 187.188 46.5762H181.257ZM183.004 44.9258H186.858C187.376 44.9258 187.838 44.832 188.246 44.6443C188.654 44.4502 188.974 44.1783 189.207 43.8289C189.447 43.4794 189.566 43.0587 189.566 42.5668C189.566 42.0944 189.46 41.6705 189.246 41.2951C189.039 40.9197 188.745 40.622 188.363 40.402C187.987 40.1755 187.55 40.0622 187.052 40.0622H183.004V44.9258ZM183.004 38.4313H186.683C187.097 38.4313 187.47 38.3439 187.8 38.1692C188.136 37.988 188.402 37.7356 188.596 37.412C188.796 37.0884 188.897 36.7098 188.897 36.2762C188.897 35.6743 188.693 35.1824 188.285 34.8006C187.877 34.4187 187.343 34.2278 186.683 34.2278H183.004V38.4313ZM196.258 46.8674C195.475 46.8674 194.818 46.725 194.287 46.4403C193.763 46.149 193.365 45.7672 193.093 45.2947C192.828 44.8223 192.695 44.3045 192.695 43.7415C192.695 43.1914 192.799 42.7157 193.006 42.3144C193.219 41.9067 193.517 41.5702 193.899 41.3048C194.281 41.033 194.737 40.8194 195.268 40.6641C195.766 40.5282 196.323 40.4117 196.937 40.3146C197.559 40.2111 198.186 40.1172 198.821 40.0331C199.455 39.949 200.047 39.8681 200.597 39.7904L199.976 40.1496C199.995 39.2176 199.808 38.5284 199.413 38.0818C199.025 37.6353 198.352 37.412 197.394 37.412C196.759 37.412 196.203 37.5576 195.724 37.8488C195.251 38.1336 194.918 38.5996 194.724 39.2468L193.083 38.7517C193.336 37.8327 193.824 37.111 194.549 36.5868C195.274 36.0626 196.229 35.8005 197.413 35.8005C198.364 35.8005 199.18 35.972 199.859 36.315C200.545 36.6515 201.037 37.1628 201.335 37.8488C201.484 38.1724 201.578 38.5252 201.617 38.907C201.655 39.2824 201.675 39.6771 201.675 40.0913V46.5762H200.141V44.0618L200.5 44.2948C200.105 45.1427 199.552 45.7834 198.84 46.217C198.135 46.6506 197.274 46.8674 196.258 46.8674ZM196.52 45.4209C197.141 45.4209 197.678 45.3109 198.131 45.0909C198.591 44.8644 198.96 44.5699 199.238 44.2075C199.516 43.8386 199.698 43.4373 199.782 43.0037C199.879 42.6801 199.931 42.3209 199.937 41.9261C199.95 41.5249 199.957 41.2175 199.957 41.0039L200.558 41.266C199.995 41.3437 199.442 41.4181 198.898 41.4893C198.355 41.5605 197.84 41.6381 197.355 41.7223C196.869 41.7999 196.433 41.8938 196.044 42.0038C195.76 42.0944 195.491 42.2109 195.239 42.3533C194.993 42.4957 194.792 42.6801 194.637 42.9066C194.488 43.1267 194.413 43.4017 194.413 43.7318C194.413 44.0165 194.485 44.2884 194.627 44.5472C194.776 44.8061 195.002 45.0164 195.307 45.1782C195.617 45.34 196.022 45.4209 196.52 45.4209ZM204.393 46.5762V32.3057H206.121V46.5762H204.393ZM212.014 46.8674C211.231 46.8674 210.574 46.725 210.043 46.4403C209.519 46.149 209.121 45.7672 208.849 45.2947C208.584 44.8223 208.451 44.3045 208.451 43.7415C208.451 43.1914 208.555 42.7157 208.762 42.3144C208.976 41.9067 209.273 41.5702 209.655 41.3048C210.037 41.033 210.493 40.8194 211.024 40.6641C211.522 40.5282 212.079 40.4117 212.694 40.3146C213.315 40.2111 213.943 40.1172 214.577 40.0331C215.211 39.949 215.803 39.8681 216.354 39.7904L215.732 40.1496C215.752 39.2176 215.564 38.5284 215.169 38.0818C214.781 37.6353 214.108 37.412 213.15 37.412C212.516 37.412 211.959 37.5576 211.48 37.8488C211.008 38.1336 210.674 38.5996 210.48 39.2468L208.84 38.7517C209.092 37.8327 209.581 37.111 210.306 36.5868C211.03 36.0626 211.985 35.8005 213.169 35.8005C214.121 35.8005 214.936 35.972 215.616 36.315C216.302 36.6515 216.794 37.1628 217.091 37.8488C217.24 38.1724 217.334 38.5252 217.373 38.907C217.412 39.2824 217.431 39.6771 217.431 40.0913V46.5762H215.897V44.0618L216.256 44.2948C215.862 45.1427 215.308 45.7834 214.596 46.217C213.891 46.6506 213.03 46.8674 212.014 46.8674ZM212.276 45.4209C212.898 45.4209 213.435 45.3109 213.888 45.0909C214.347 44.8644 214.716 44.5699 214.994 44.2075C215.273 43.8386 215.454 43.4373 215.538 43.0037C215.635 42.6801 215.687 42.3209 215.693 41.9261C215.706 41.5249 215.713 41.2175 215.713 41.0039L216.315 41.266C215.752 41.3437 215.198 41.4181 214.655 41.4893C214.111 41.5605 213.596 41.6381 213.111 41.7223C212.626 41.7999 212.189 41.8938 211.801 42.0038C211.516 42.0944 211.247 42.2109 210.995 42.3533C210.749 42.4957 210.548 42.6801 210.393 42.9066C210.244 43.1267 210.17 43.4017 210.17 43.7318C210.17 44.0165 210.241 44.2884 210.383 44.5472C210.532 44.8061 210.759 45.0164 211.063 45.1782C211.373 45.34 211.778 45.4209 212.276 45.4209ZM227.42 46.5762V41.3242C227.42 40.8259 227.375 40.347 227.285 39.8875C227.2 39.428 227.048 39.017 226.828 38.6546C226.615 38.2857 226.323 37.9945 225.955 37.7809C225.592 37.5673 225.133 37.4605 224.576 37.4605C224.142 37.4605 223.748 37.535 223.392 37.6838C223.042 37.8262 222.741 38.0462 222.489 38.3439C222.236 38.6416 222.039 39.017 221.897 39.47C221.761 39.9166 221.693 40.4441 221.693 41.0524L220.557 40.7029C220.557 39.6869 220.738 38.8164 221.101 38.0915C221.47 37.3602 221.984 36.8004 222.644 36.4121C223.311 36.0173 224.094 35.8199 224.993 35.8199C225.673 35.8199 226.252 35.9267 226.731 36.1403C227.21 36.3538 227.608 36.6386 227.925 36.9946C228.242 37.344 228.492 37.7388 228.673 38.1789C228.854 38.6125 228.98 39.0558 229.051 39.5089C229.129 39.9554 229.168 40.3793 229.168 40.7806V46.5762H227.42ZM219.945 46.5762V36.0917H221.499V38.8973H221.693V46.5762H219.945ZM236.014 46.8674C234.953 46.8674 234.05 46.6312 233.305 46.1587C232.568 45.6798 232.005 45.0229 231.616 44.188C231.228 43.3532 231.027 42.4018 231.014 41.3339C231.027 40.2402 231.231 39.2791 231.626 38.4507C232.027 37.6159 232.6 36.9654 233.344 36.4995C234.089 36.0335 234.985 35.8005 236.033 35.8005C237.14 35.8005 238.091 36.0723 238.887 36.6159C239.69 37.1596 240.227 37.9039 240.499 38.8487L238.79 39.3633C238.57 38.7549 238.211 38.2825 237.713 37.9459C237.221 37.6094 236.655 37.4411 236.014 37.4411C235.296 37.4411 234.703 37.6094 234.237 37.9459C233.771 38.276 233.425 38.7355 233.199 39.3244C232.972 39.9069 232.856 40.5767 232.849 41.3339C232.862 42.4989 233.131 43.4405 233.655 44.1589C234.186 44.8708 234.972 45.2268 236.014 45.2268C236.7 45.2268 237.27 45.0715 237.723 44.7608C238.176 44.4437 238.519 43.9874 238.752 43.392L240.499 43.8483C240.137 44.8255 239.57 45.573 238.8 46.0908C238.03 46.6085 237.101 46.8674 236.014 46.8674ZM246.739 46.8674C245.71 46.8674 244.811 46.6409 244.04 46.1879C243.277 45.7284 242.681 45.0909 242.254 44.2754C241.827 43.4535 241.613 42.4957 241.613 41.4019C241.613 40.2564 241.824 39.2662 242.244 38.4313C242.665 37.59 243.251 36.9428 244.002 36.4897C244.759 36.0302 245.645 35.8005 246.661 35.8005C247.716 35.8005 248.613 36.0432 249.351 36.5286C250.095 37.014 250.651 37.7065 251.02 38.6061C251.396 39.5056 251.557 40.5767 251.506 41.8193H249.758V41.198C249.739 39.9101 249.477 38.9491 248.972 38.3148C248.467 37.6741 247.716 37.3537 246.72 37.3537C245.652 37.3537 244.84 37.6968 244.283 38.3828C243.726 39.0688 243.448 40.0525 243.448 41.3339C243.448 42.5701 243.726 43.5279 244.283 44.2075C244.84 44.887 245.632 45.2268 246.661 45.2268C247.354 45.2268 247.956 45.0682 248.467 44.7511C248.978 44.434 249.38 43.9777 249.671 43.3823L251.331 43.9551C250.923 44.8805 250.308 45.5989 249.486 46.1102C248.671 46.615 247.755 46.8674 246.739 46.8674ZM242.866 41.8193V40.4311H250.613V41.8193H242.866Z" fill="#161616"/>
<path d="M138.925 85.4549V82.8255H141.599V85.4549H138.925ZM138.925 67.7035V65.074H141.599V67.7035H138.925ZM140.323 83.5799C139.199 83.5799 138.193 83.3728 137.306 82.9586C136.418 82.5444 135.689 81.9601 135.12 81.2057C134.558 80.4512 134.199 79.5562 134.044 78.5207L136.684 78.0992C136.891 79.0089 137.335 79.7338 138.016 80.2737C138.703 80.8062 139.524 81.0725 140.479 81.0725C141.396 81.0725 142.15 80.858 142.742 80.429C143.334 79.9926 143.63 79.4416 143.63 78.7759C143.63 78.31 143.489 77.9327 143.208 77.6443C142.927 77.3484 142.476 77.1043 141.854 76.912L138.005 75.7138C135.763 75.0185 134.643 73.6576 134.643 71.631C134.643 70.6842 134.868 69.8595 135.32 69.1569C135.778 68.4468 136.422 67.9032 137.25 67.526C138.078 67.1413 139.055 66.9527 140.179 66.9601C141.222 66.9675 142.15 67.1561 142.964 67.526C143.785 67.8958 144.465 68.4283 145.005 69.1236C145.553 69.8188 145.941 70.6546 146.17 71.631L143.43 72.1302C143.326 71.6051 143.123 71.1428 142.82 70.7434C142.516 70.344 142.135 70.0333 141.677 69.8114C141.218 69.5896 140.708 69.4712 140.146 69.4564C139.606 69.449 139.121 69.5341 138.692 69.7116C138.263 69.8817 137.923 70.1258 137.672 70.4438C137.42 70.7545 137.294 71.1058 137.294 71.4978C137.294 71.9342 137.468 72.3077 137.816 72.6184C138.171 72.929 138.729 73.1953 139.491 73.4172L142.365 74.2493C143.748 74.6487 144.743 75.1924 145.349 75.8802C145.963 76.5607 146.27 77.4668 146.27 78.5984C146.27 79.5895 146.022 80.4586 145.527 81.2057C145.031 81.9527 144.336 82.537 143.441 82.9586C142.546 83.3728 141.507 83.5799 140.323 83.5799ZM151.45 83.2471V70.1887L148.454 72.0193V69.0681L151.45 67.2708H154.179V83.2471H151.45ZM164.153 83.5799C163.021 83.5799 162.022 83.3395 161.157 82.8588C160.292 82.3706 159.615 81.6938 159.127 80.8284C158.646 79.9631 158.406 78.9645 158.406 77.8329V72.685C158.406 71.5533 158.646 70.5548 159.127 69.6894C159.615 68.824 160.292 68.1509 161.157 67.6702C162.022 67.182 163.021 66.9379 164.153 66.9379C165.284 66.9379 166.279 67.182 167.137 67.6702C168.002 68.1509 168.679 68.824 169.167 69.6894C169.655 70.5548 169.9 71.5533 169.9 72.685V77.8329C169.9 78.9645 169.655 79.9631 169.167 80.8284C168.679 81.6938 168.002 82.3706 167.137 82.8588C166.279 83.3395 165.284 83.5799 164.153 83.5799ZM164.153 81.0392C164.715 81.0392 165.225 80.9061 165.684 80.6398C166.142 80.3662 166.505 80.0037 166.771 79.5526C167.037 79.094 167.17 78.5836 167.17 78.0215V72.4853C167.17 71.9157 167.037 71.4054 166.771 70.9542C166.505 70.4956 166.142 70.1332 165.684 69.8669C165.225 69.5933 164.715 69.4564 164.153 69.4564C163.59 69.4564 163.08 69.5933 162.621 69.8669C162.163 70.1332 161.8 70.4956 161.534 70.9542C161.268 71.4054 161.135 71.9157 161.135 72.4853V78.0215C161.135 78.5836 161.268 79.094 161.534 79.5526C161.8 80.0037 162.163 80.3662 162.621 80.6398C163.08 80.9061 163.59 81.0392 164.153 81.0392ZM172.789 86.0762L172.944 84.9224C173.284 84.9519 173.554 84.8928 173.754 84.7448C173.954 84.6043 174.087 84.4009 174.153 84.1346C174.227 83.8758 174.246 83.5799 174.209 83.2471H172.789V80.3957H175.529V83.358C175.529 84.3269 175.3 85.0592 174.841 85.5548C174.383 86.0503 173.698 86.2241 172.789 86.0762ZM185.497 83.5799C184.365 83.5799 183.367 83.3395 182.501 82.8588C181.636 82.3706 180.959 81.6938 180.471 80.8284C179.99 79.9631 179.75 78.9645 179.75 77.8329V72.685C179.75 71.5533 179.99 70.5548 180.471 69.6894C180.959 68.824 181.636 68.1509 182.501 67.6702C183.367 67.182 184.365 66.9379 185.497 66.9379C186.628 66.9379 187.623 67.182 188.481 67.6702C189.347 68.1509 190.023 68.824 190.512 69.6894C191 70.5548 191.244 71.5533 191.244 72.685V77.8329C191.244 78.9645 191 79.9631 190.512 80.8284C190.023 81.6938 189.347 82.3706 188.481 82.8588C187.623 83.3395 186.628 83.5799 185.497 83.5799ZM185.497 81.0392C186.059 81.0392 186.569 80.9061 187.028 80.6398C187.486 80.3662 187.849 80.0037 188.115 79.5526C188.381 79.094 188.514 78.5836 188.514 78.0215V72.4853C188.514 71.9157 188.381 71.4054 188.115 70.9542C187.849 70.4956 187.486 70.1332 187.028 69.8669C186.569 69.5933 186.059 69.4564 185.497 69.4564C184.935 69.4564 184.424 69.5933 183.966 69.8669C183.507 70.1332 183.145 70.4956 182.878 70.9542C182.612 71.4054 182.479 71.9157 182.479 72.4853V78.0215C182.479 78.5836 182.612 79.094 182.878 79.5526C183.145 80.0037 183.507 80.3662 183.966 80.6398C184.424 80.9061 184.935 81.0392 185.497 81.0392ZM200.102 83.5799C198.97 83.5799 197.972 83.3395 197.106 82.8588C196.241 82.3706 195.564 81.6938 195.076 80.8284C194.595 79.9631 194.355 78.9645 194.355 77.8329V72.685C194.355 71.5533 194.595 70.5548 195.076 69.6894C195.564 68.824 196.241 68.1509 197.106 67.6702C197.972 67.182 198.97 66.9379 200.102 66.9379C201.233 66.9379 202.228 67.182 203.086 67.6702C203.952 68.1509 204.628 68.824 205.117 69.6894C205.605 70.5548 205.849 71.5533 205.849 72.685V77.8329C205.849 78.9645 205.605 79.9631 205.117 80.8284C204.628 81.6938 203.952 82.3706 203.086 82.8588C202.228 83.3395 201.233 83.5799 200.102 83.5799ZM200.102 81.0392C200.664 81.0392 201.174 80.9061 201.633 80.6398C202.091 80.3662 202.454 80.0037 202.72 79.5526C202.986 79.094 203.12 78.5836 203.12 78.0215V72.4853C203.12 71.9157 202.986 71.4054 202.72 70.9542C202.454 70.4956 202.091 70.1332 201.633 69.8669C201.174 69.5933 200.664 69.4564 200.102 69.4564C199.54 69.4564 199.029 69.5933 198.571 69.8669C198.112 70.1332 197.75 70.4956 197.483 70.9542C197.217 71.4054 197.084 71.9157 197.084 72.4853V78.0215C197.084 78.5836 197.217 79.094 197.483 79.5526C197.75 80.0037 198.112 80.3662 198.571 80.6398C199.029 80.9061 199.54 81.0392 200.102 81.0392ZM214.707 83.5799C213.575 83.5799 212.577 83.3395 211.711 82.8588C210.846 82.3706 210.169 81.6938 209.681 80.8284C209.2 79.9631 208.96 78.9645 208.96 77.8329V72.685C208.96 71.5533 209.2 70.5548 209.681 69.6894C210.169 68.824 210.846 68.1509 211.711 67.6702C212.577 67.182 213.575 66.9379 214.707 66.9379C215.839 66.9379 216.833 67.182 217.691 67.6702C218.557 68.1509 219.233 68.824 219.722 69.6894C220.21 70.5548 220.454 71.5533 220.454 72.685V77.8329C220.454 78.9645 220.21 79.9631 219.722 80.8284C219.233 81.6938 218.557 82.3706 217.691 82.8588C216.833 83.3395 215.839 83.5799 214.707 83.5799ZM214.707 81.0392C215.269 81.0392 215.779 80.9061 216.238 80.6398C216.697 80.3662 217.059 80.0037 217.325 79.5526C217.591 79.094 217.725 78.5836 217.725 78.0215V72.4853C217.725 71.9157 217.591 71.4054 217.325 70.9542C217.059 70.4956 216.697 70.1332 216.238 69.8669C215.779 69.5933 215.269 69.4564 214.707 69.4564C214.145 69.4564 213.634 69.5933 213.176 69.8669C212.717 70.1332 212.355 70.4956 212.089 70.9542C211.822 71.4054 211.689 71.9157 211.689 72.4853V78.0215C211.689 78.5836 211.822 79.094 212.089 79.5526C212.355 80.0037 212.717 80.3662 213.176 80.6398C213.634 80.9061 214.145 81.0392 214.707 81.0392Z" fill="#161616"/>
<path d="M379.525 78.245V74.8015H376.082V73.4764H379.525V70.0419H380.85V73.4764H384.285V74.8015H380.85V78.245H379.525ZM386.272 80.6248L386.281 79.1825L392.041 73.9992C392.522 73.5665 392.843 73.1578 393.005 72.7732C393.174 72.3826 393.258 71.983 393.258 71.5743C393.258 71.0755 393.144 70.6248 392.915 70.2222C392.687 69.8195 392.374 69.501 391.978 69.2666C391.587 69.0323 391.142 68.9151 390.644 68.9151C390.127 68.9151 389.667 69.0383 389.264 69.2847C388.862 69.525 388.543 69.8466 388.309 70.2492C388.08 70.6518 387.969 71.0905 387.975 71.5653H386.335C386.335 70.748 386.524 70.0268 386.903 69.4018C387.281 68.7708 387.795 68.278 388.444 67.9235C389.099 67.5629 389.841 67.3826 390.671 67.3826C391.476 67.3826 392.197 67.5689 392.834 67.9415C393.471 68.3081 393.973 68.8099 394.339 69.4469C394.712 70.0779 394.898 70.7931 394.898 71.5923C394.898 72.1572 394.826 72.647 394.682 73.0617C394.544 73.4764 394.327 73.861 394.033 74.2155C393.738 74.5641 393.369 74.9367 392.924 75.3333L388.138 79.6332L387.93 79.0923H394.898V80.6248H386.272ZM401.436 80.9042C400.595 80.9042 399.843 80.7149 399.182 80.3363C398.527 79.9517 398.008 79.4319 397.623 78.7768C397.244 78.1158 397.055 77.3646 397.055 76.5232V71.7636C397.055 70.9223 397.244 70.1711 397.623 69.51C398.008 68.849 398.527 68.3291 399.182 67.9505C399.843 67.5719 400.595 67.3826 401.436 67.3826C402.277 67.3826 403.029 67.5719 403.69 67.9505C404.351 68.3291 404.87 68.849 405.249 69.51C405.628 70.1711 405.817 70.9223 405.817 71.7636V76.5232C405.817 77.3646 405.628 78.1158 405.249 78.7768C404.87 79.4319 404.351 79.9517 403.69 80.3363C403.029 80.7149 402.277 80.9042 401.436 80.9042ZM401.436 79.3628C401.947 79.3628 402.41 79.2396 402.824 78.9932C403.239 78.7468 403.569 78.4162 403.816 78.0016C404.062 77.5809 404.185 77.1182 404.185 76.6134V71.6645C404.185 71.1536 404.062 70.6909 403.816 70.2762C403.569 69.8616 403.239 69.531 402.824 69.2847C402.41 69.0383 401.947 68.9151 401.436 68.9151C400.931 68.9151 400.468 69.0383 400.048 69.2847C399.633 69.531 399.303 69.8616 399.056 70.2762C398.81 70.6909 398.687 71.1536 398.687 71.6645V76.6134C398.687 77.1182 398.81 77.5809 399.056 78.0016C399.303 78.4162 399.633 78.7468 400.048 78.9932C400.468 79.2396 400.931 79.3628 401.436 79.3628ZM409.783 80.6338L408.701 79.5521L420.618 67.653L421.7 68.7348L409.783 80.6338ZM418.996 80.9042C418.401 80.9042 417.857 80.76 417.364 80.4715C416.877 80.1771 416.487 79.7864 416.192 79.2997C415.898 78.8069 415.75 78.26 415.75 77.659C415.75 77.0701 415.901 76.5292 416.201 76.0364C416.502 75.5437 416.898 75.15 417.391 74.8556C417.884 74.5611 418.419 74.4139 418.996 74.4139C419.591 74.4139 420.134 74.5611 420.627 74.8556C421.12 75.144 421.511 75.5346 421.799 76.0274C422.094 76.5142 422.241 77.0581 422.241 77.659C422.241 78.26 422.094 78.8069 421.799 79.2997C421.511 79.7864 421.12 80.1771 420.627 80.4715C420.134 80.76 419.591 80.9042 418.996 80.9042ZM418.996 79.489C419.326 79.489 419.63 79.4048 419.906 79.2366C420.189 79.0683 420.411 78.8459 420.573 78.5695C420.741 78.293 420.826 77.9896 420.826 77.659C420.826 77.3285 420.741 77.025 420.573 76.7486C420.411 76.4661 420.189 76.2438 419.906 76.0815C419.63 75.9132 419.326 75.8291 418.996 75.8291C418.665 75.8291 418.362 75.9132 418.085 76.0815C417.809 76.2438 417.586 76.4661 417.418 76.7486C417.25 77.025 417.166 77.3285 417.166 77.659C417.166 77.9896 417.25 78.293 417.418 78.5695C417.586 78.8459 417.809 79.0683 418.085 79.2366C418.362 79.4048 418.665 79.489 418.996 79.489ZM411.406 73.873C410.811 73.873 410.267 73.7288 409.774 73.4403C409.281 73.1458 408.887 72.7552 408.593 72.2684C408.305 71.7756 408.16 71.2288 408.16 70.6278C408.16 70.0389 408.311 69.498 408.611 69.0052C408.912 68.5124 409.308 68.1188 409.801 67.8243C410.294 67.5299 410.829 67.3826 411.406 67.3826C412 67.3826 412.541 67.5299 413.028 67.8243C413.521 68.1128 413.915 68.5034 414.209 68.9962C414.503 69.483 414.651 70.0268 414.651 70.6278C414.651 71.2288 414.503 71.7756 414.209 72.2684C413.915 72.7552 413.521 73.1458 413.028 73.4403C412.541 73.7288 412 73.873 411.406 73.873ZM411.406 72.4577C411.736 72.4577 412.04 72.3736 412.316 72.2053C412.598 72.0371 412.821 71.8147 412.983 71.5383C413.151 71.2618 413.235 70.9583 413.235 70.6278C413.235 70.2973 413.151 69.9938 412.983 69.7173C412.821 69.4349 412.598 69.2125 412.316 69.0503C412.04 68.882 411.736 68.7979 411.406 68.7979C411.075 68.7979 410.771 68.882 410.495 69.0503C410.219 69.2125 409.996 69.4349 409.828 69.7173C409.66 69.9938 409.576 70.2973 409.576 70.6278C409.576 70.9583 409.66 71.2618 409.828 71.5383C409.996 71.8147 410.219 72.0371 410.495 72.2053C410.771 72.3736 411.075 72.4577 411.406 72.4577Z" fill="#FFA051"/>
<path d="M132.775 102.699H133.885V110.465H132.609V104.063L131.045 104.507L130.734 103.42L132.775 102.699ZM140.454 109.511C139.921 110.243 139.174 110.609 138.213 110.609C137.251 110.609 136.5 110.243 135.96 109.511C135.428 108.778 135.162 107.802 135.162 106.582C135.162 105.361 135.428 104.385 135.96 103.653C136.5 102.92 137.251 102.554 138.213 102.554C139.174 102.554 139.921 102.92 140.454 103.653C140.994 104.385 141.264 105.361 141.264 106.582C141.264 107.802 140.994 108.778 140.454 109.511ZM138.213 109.366C138.79 109.366 139.23 109.126 139.533 108.645C139.836 108.165 139.988 107.477 139.988 106.582C139.988 105.687 139.836 104.999 139.533 104.518C139.23 104.037 138.79 103.797 138.213 103.797C137.643 103.797 137.203 104.037 136.892 104.518C136.589 104.999 136.438 105.687 136.438 106.582C136.438 107.477 136.589 108.165 136.892 108.645C137.203 109.126 137.643 109.366 138.213 109.366ZM147.309 110.465H145.878L143.603 107.902V110.465H142.405V102.699H143.603V107.369L145.756 104.918H147.22L144.779 107.636L147.309 110.465Z" fill="#718EBF"/>
<path d="M143.064 134.229V135.417H142.176V136.814H140.889V135.417H137.072V134.229L139.746 129.048H141.133L138.459 134.229H140.889V132.21H142.176V134.229H143.064ZM148.856 136.814H147.425L145.15 134.252V136.814H143.952V129.048H145.15V133.719L147.303 131.267H148.767L146.326 133.985L148.856 136.814Z" fill="#718EBF"/>
<path d="M136.725 163.165V162.166L139.432 159.403C140.09 158.745 140.419 158.176 140.419 157.695C140.419 157.318 140.304 157.026 140.075 156.818C139.853 156.604 139.569 156.497 139.221 156.497C138.57 156.497 138.089 156.818 137.779 157.462L136.702 156.83C136.947 156.312 137.29 155.92 137.734 155.653C138.178 155.387 138.67 155.254 139.21 155.254C139.89 155.254 140.475 155.469 140.963 155.898C141.451 156.327 141.695 156.911 141.695 157.651C141.695 158.442 141.255 159.285 140.375 160.18L138.622 161.933H141.839V163.165H136.725ZM147.856 163.165H146.425L144.15 160.602V163.165H142.952V155.398H144.15V160.069L146.303 157.617H147.767L145.326 160.335L147.856 163.165Z" fill="#718EBF"/>
<path d="M145.871 189.947C145.338 190.679 144.591 191.045 143.63 191.045C142.668 191.045 141.917 190.679 141.377 189.947C140.845 189.214 140.579 188.238 140.579 187.018C140.579 185.797 140.845 184.821 141.377 184.089C141.917 183.357 142.668 182.99 143.63 182.99C144.591 182.99 145.338 183.357 145.871 184.089C146.411 184.821 146.681 185.797 146.681 187.018C146.681 188.238 146.411 189.214 145.871 189.947ZM143.63 189.803C144.206 189.803 144.647 189.562 144.95 189.081C145.253 188.601 145.405 187.913 145.405 187.018C145.405 186.123 145.253 185.435 144.95 184.954C144.647 184.473 144.206 184.233 143.63 184.233C143.06 184.233 142.62 184.473 142.309 184.954C142.006 185.435 141.854 186.123 141.854 187.018C141.854 187.913 142.006 188.601 142.309 189.081C142.62 189.562 143.06 189.803 143.63 189.803Z" fill="#718EBF"/>
<path d="M177.771 207.688C177.024 207.688 176.388 207.518 175.863 207.177C175.345 206.837 174.983 206.371 174.776 205.779L175.874 205.136C176.185 206.009 176.828 206.445 177.804 206.445C178.285 206.445 178.644 206.353 178.881 206.168C179.125 205.975 179.247 205.728 179.247 205.424C179.247 205.106 179.117 204.866 178.858 204.703C178.6 204.533 178.141 204.348 177.483 204.148C177.113 204.038 176.813 203.934 176.584 203.838C176.355 203.742 176.111 203.609 175.852 203.438C175.6 203.261 175.412 203.043 175.286 202.784C175.16 202.525 175.097 202.222 175.097 201.874C175.097 201.186 175.341 200.643 175.83 200.243C176.318 199.836 176.906 199.633 177.594 199.633C178.215 199.633 178.759 199.785 179.225 200.088C179.691 200.391 180.049 200.809 180.301 201.342L179.225 201.963C178.899 201.238 178.356 200.876 177.594 200.876C177.224 200.876 176.928 200.964 176.706 201.142C176.484 201.312 176.373 201.545 176.373 201.841C176.373 202.129 176.484 202.359 176.706 202.529C176.935 202.691 177.346 202.865 177.938 203.05C178.233 203.146 178.448 203.22 178.581 203.272C178.722 203.316 178.914 203.39 179.158 203.494C179.41 203.597 179.598 203.701 179.724 203.805C179.85 203.908 179.983 204.038 180.123 204.193C180.271 204.348 180.375 204.526 180.434 204.725C180.493 204.925 180.523 205.151 180.523 205.402C180.523 206.105 180.267 206.663 179.757 207.077C179.254 207.484 178.592 207.688 177.771 207.688Z" fill="#718EBF"/>
<path d="M159.539 180.901C159.539 178.603 161.402 176.741 163.7 176.741H183.115C185.413 176.741 187.276 178.603 187.276 180.901V193.383H159.539V180.901Z" fill="#E8F2FF"/>
<path d="M210.748 199.777V207.543H209.473V202.007L207.109 205.913H206.954L204.591 201.996V207.543H203.315V199.777H204.691L207.032 203.66L209.384 199.777H210.748Z" fill="#718EBF"/>
<path d="M192.822 172.58C192.822 170.283 194.685 168.42 196.983 168.42H216.398C218.696 168.42 220.559 170.283 220.559 172.58V193.383H192.822V172.58Z" fill="#E8F2FF"/>
<path d="M243.03 199.777V200.998H240.844V207.543H239.569V200.998H237.372V199.777H243.03Z" fill="#718EBF"/>
<path d="M226.107 139.297C226.107 136.999 227.97 135.136 230.268 135.136H249.684C251.981 135.136 253.844 136.999 253.844 139.297V193.383H226.107V139.297Z" fill="#E8F2FF"/>
<path d="M270.588 207.543L268.391 199.777H269.733L271.364 205.846L273.128 199.777H274.304L276.057 205.846L277.688 199.777H279.031L276.834 207.543H275.358L273.716 201.874L272.063 207.543H270.588Z" fill="#718EBF"/>
<path d="M259.391 154.552C259.391 152.254 261.253 150.391 263.551 150.391H282.967C285.265 150.391 287.127 152.254 287.127 154.552V193.383H259.391V154.552Z" fill="#FFA051"/>
<path d="M309.6 199.778V200.998H307.415V207.544H306.139V200.998H303.942V199.778H309.6Z" fill="#718EBF"/>
<path d="M292.676 115.721C292.676 113.423 294.538 111.56 296.836 111.56H316.252C318.55 111.56 320.412 113.423 320.412 115.721V193.383H292.676V115.721Z" fill="#FFA051"/>
<path d="M343.896 200.998H340.623V203.172H343.785V204.393H340.623V207.543H339.347V199.777H343.896V200.998Z" fill="#718EBF"/>
<path d="M325.959 180.902C325.959 178.604 327.822 176.741 330.119 176.741H349.535C351.833 176.741 353.696 178.604 353.696 180.902V193.383H325.959V180.902Z" fill="#E8F2FF"/>
<path d="M373.974 207.688C373.227 207.688 372.591 207.518 372.066 207.177C371.548 206.837 371.186 206.371 370.979 205.779L372.077 205.136C372.388 206.009 373.031 206.445 374.008 206.445C374.488 206.445 374.847 206.353 375.084 206.168C375.328 205.975 375.45 205.728 375.45 205.424C375.45 205.106 375.32 204.866 375.062 204.703C374.803 204.533 374.344 204.348 373.686 204.148C373.316 204.038 373.016 203.934 372.787 203.838C372.558 203.742 372.314 203.609 372.055 203.438C371.803 203.261 371.615 203.043 371.489 202.784C371.363 202.525 371.301 202.222 371.301 201.874C371.301 201.186 371.545 200.643 372.033 200.243C372.521 199.836 373.109 199.633 373.797 199.633C374.418 199.633 374.962 199.785 375.428 200.088C375.894 200.391 376.252 200.809 376.504 201.342L375.428 201.963C375.102 201.238 374.559 200.876 373.797 200.876C373.427 200.876 373.131 200.964 372.909 201.142C372.687 201.312 372.576 201.545 372.576 201.841C372.576 202.129 372.687 202.359 372.909 202.529C373.139 202.691 373.549 202.865 374.141 203.05C374.437 203.146 374.651 203.22 374.784 203.272C374.925 203.316 375.117 203.39 375.361 203.494C375.613 203.597 375.801 203.701 375.927 203.805C376.053 203.908 376.186 204.038 376.326 204.193C376.474 204.348 376.578 204.526 376.637 204.725C376.696 204.925 376.726 205.151 376.726 205.402C376.726 206.105 376.471 206.663 375.96 207.077C375.457 207.484 374.795 207.688 373.974 207.688Z" fill="#718EBF"/>
<path d="M359.242 154.552C359.242 152.254 361.105 150.391 363.403 150.391H382.818C385.116 150.391 386.979 152.254 386.979 154.552V193.383H359.242V154.552Z" fill="#FFA051"/>
<path d="M408.648 207.688C407.901 207.688 407.265 207.518 406.74 207.177C406.222 206.837 405.86 206.371 405.653 205.779L406.751 205.136C407.062 206.009 407.705 206.445 408.681 206.445C409.162 206.445 409.521 206.353 409.758 206.168C410.002 205.975 410.124 205.728 410.124 205.424C410.124 205.106 409.994 204.866 409.735 204.703C409.477 204.533 409.018 204.348 408.36 204.148C407.99 204.038 407.69 203.934 407.461 203.838C407.232 203.742 406.988 203.609 406.729 203.438C406.477 203.261 406.289 203.043 406.163 202.784C406.037 202.525 405.974 202.222 405.974 201.874C405.974 201.186 406.218 200.643 406.707 200.243C407.195 199.836 407.783 199.633 408.471 199.633C409.092 199.633 409.636 199.785 410.102 200.088C410.568 200.391 410.926 200.809 411.178 201.342L410.102 201.963C409.776 201.238 409.232 200.876 408.471 200.876C408.101 200.876 407.805 200.964 407.583 201.142C407.361 201.312 407.25 201.545 407.25 201.841C407.25 202.129 407.361 202.359 407.583 202.529C407.812 202.691 408.223 202.865 408.815 203.05C409.11 203.146 409.325 203.22 409.458 203.272C409.599 203.316 409.791 203.39 410.035 203.494C410.286 203.597 410.475 203.701 410.601 203.805C410.727 203.908 410.86 204.038 411 204.193C411.148 204.348 411.252 204.526 411.311 204.725C411.37 204.925 411.4 205.151 411.4 205.402C411.4 206.105 411.144 206.663 410.634 207.077C410.131 207.484 409.469 207.688 408.648 207.688Z" fill="#718EBF"/>
<path d="M392.527 133.749C392.527 131.452 394.39 129.589 396.688 129.589H416.103C418.401 129.589 420.264 131.452 420.264 133.749V193.383H392.527V133.749Z" fill="#FFA051"/>
<defs>
<filter id="filter0_dddddd_1589_6353" x="0.0534973" y="0.202256" width="558.893" height="484.415" filterUnits="userSpaceOnUse" color-interpolation-filters="sRGB">
<feFlood flood-opacity="0" result="BackgroundImageFix"/>
<feColorMatrix in="SourceAlpha" type="matrix" values="0 0 0 0 0 0 0 0 0 0 0 0 0 0 0 0 0 0 127 0" result="hardAlpha"/>
<feOffset dy="2.56821"/>
<feGaussianBlur stdDeviation="2.18298"/>
<feColorMatrix type="matrix" values="0 0 0 0 0 0 0 0 0 0 0 0 0 0 0 0 0 0 0.01 0"/>
<feBlend mode="normal" in2="BackgroundImageFix" result="effect1_dropShadow_1589_6353"/>
<feColorMatrix in="SourceAlpha" type="matrix" values="0 0 0 0 0 0 0 0 0 0 0 0 0 0 0 0 0 0 127 0" result="hardAlpha"/>
<feOffset dy="11.3001"/>
<feGaussianBlur stdDeviation="4.52004"/>
<feColorMatrix type="matrix" values="0 0 0 0 0 0 0 0 0 0 0 0 0 0 0 0 0 0 0.0117778 0"/>
<feBlend mode="normal" in2="effect1_dropShadow_1589_6353" result="effect2_dropShadow_1589_6353"/>
<feColorMatrix in="SourceAlpha" type="matrix" values="0 0 0 0 0 0 0 0 0 0 0 0 0 0 0 0 0 0 127 0" result="hardAlpha"/>
<feOffset dy="27.7366"/>
<feGaussianBlur stdDeviation="9.0144"/>
<feColorMatrix type="matrix" values="0 0 0 0 0 0 0 0 0 0 0 0 0 0 0 0 0 0 0.015 0"/>
<feBlend mode="normal" in2="effect2_dropShadow_1589_6353" result="effect3_dropShadow_1589_6353"/>
<feColorMatrix in="SourceAlpha" type="matrix" values="0 0 0 0 0 0 0 0 0 0 0 0 0 0 0 0 0 0 127 0" result="hardAlpha"/>
<feOffset dy="53.4187"/>
<feGaussianBlur stdDeviation="17.6693"/>
<feColorMatrix type="matrix" values="0 0 0 0 0 0 0 0 0 0 0 0 0 0 0 0 0 0 0.0182222 0"/>
<feBlend mode="normal" in2="effect3_dropShadow_1589_6353" result="effect4_dropShadow_1589_6353"/>
<feColorMatrix in="SourceAlpha" type="matrix" values="0 0 0 0 0 0 0 0 0 0 0 0 0 0 0 0 0 0 127 0" result="hardAlpha"/>
<feOffset dy="89.8872"/>
<feGaussianBlur stdDeviation="32.4878"/>
<feColorMatrix type="matrix" values="0 0 0 0 0 0 0 0 0 0 0 0 0 0 0 0 0 0 0.0227778 0"/>
<feBlend mode="normal" in2="effect4_dropShadow_1589_6353" result="effect5_dropShadow_1589_6353"/>
<feColorMatrix in="SourceAlpha" type="matrix" values="0 0 0 0 0 0 0 0 0 0 0 0 0 0 0 0 0 0 127 0" result="hardAlpha"/>
<feOffset dy="138.683"/>
<feGaussianBlur stdDeviation="55.4733"/>
<feColorMatrix type="matrix" values="0 0 0 0 0 0 0 0 0 0 0 0 0 0 0 0 0 0 0.03 0"/>
<feBlend mode="normal" in2="effect5_dropShadow_1589_6353" result="effect6_dropShadow_1589_6353"/>
<feBlend mode="normal" in="SourceGraphic" in2="effect6_dropShadow_1589_6353" result="shape"/>
</filter>
</defs>
</svg>
