<svg width="337" height="233" viewBox="0 0 337 233" fill="none" xmlns="http://www.w3.org/2000/svg">
<rect width="337" height="232.988" rx="10" fill="white"/>
<path d="M24.4848 44.5762V32.2375H19.7183V30.5969H30.9793V32.2375H26.2128V44.5762H24.4848ZM35.4358 44.8674C34.3939 44.8674 33.4943 44.6312 32.737 44.1587C31.9863 43.6863 31.4071 43.0326 30.9993 42.1978C30.5916 41.3629 30.3878 40.405 30.3878 39.3242C30.3878 38.224 30.5949 37.2597 31.0091 36.4313C31.4233 35.6029 32.009 34.959 32.7662 34.4995C33.5234 34.0335 34.4133 33.8005 35.4358 33.8005C36.4843 33.8005 37.3871 34.0367 38.1443 34.5092C38.9015 34.9751 39.4807 35.6256 39.882 36.4604C40.2897 37.2888 40.4936 38.2434 40.4936 39.3242C40.4936 40.418 40.2897 41.3823 39.882 42.2172C39.4743 43.0456 38.8918 43.696 38.1346 44.1684C37.3774 44.6344 36.4778 44.8674 35.4358 44.8674ZM35.4358 43.2268C36.5231 43.2268 37.3321 42.8644 37.8628 42.1395C38.3935 41.4147 38.6588 40.4762 38.6588 39.3242C38.6588 38.1399 38.3902 37.1982 37.8531 36.4993C37.3159 35.7938 36.5102 35.4411 35.4358 35.4411C34.7045 35.4411 34.1026 35.6061 33.6302 35.9362C33.1577 36.2663 32.805 36.7225 32.572 37.305C32.339 37.8875 32.2225 38.5606 32.2225 39.3242C32.2225 40.5021 32.4944 41.447 33.038 42.1589C33.5816 42.8708 34.3809 43.2268 35.4358 43.2268ZM48.4848 44.5762C47.8635 44.6991 47.2487 44.7477 46.6403 44.7218C46.0384 44.7024 45.5013 44.5826 45.0288 44.3626C44.5564 44.1361 44.1972 43.7866 43.9512 43.3142C43.7441 42.9 43.6309 42.4825 43.6115 42.0618C43.5985 41.6347 43.5921 41.1525 43.5921 40.6154V31.1794H45.3201V40.5377C45.3201 40.9649 45.3233 41.3305 45.3298 41.6347C45.3427 41.9389 45.4107 42.201 45.5336 42.421C45.7666 42.8352 46.1355 43.0779 46.6403 43.1491C47.1516 43.2203 47.7664 43.2009 48.4848 43.0909V44.5762ZM41.466 35.5188V34.0917H48.4848V35.5188H41.466ZM53.5937 44.8674C52.8106 44.8674 52.1537 44.725 51.623 44.4403C51.0988 44.149 50.7008 43.7672 50.4289 43.2947C50.1636 42.8223 50.0309 42.3045 50.0309 41.7415C50.0309 41.1914 50.1345 40.7157 50.3416 40.3144C50.5551 39.9067 50.8528 39.5702 51.2347 39.3048C51.6165 39.033 52.0728 38.8194 52.6035 38.6641C53.1018 38.5282 53.6584 38.4117 54.2732 38.3146C54.8945 38.2111 55.5223 38.1172 56.1566 38.0331C56.7908 37.949 57.383 37.8681 57.9331 37.7904L57.3118 38.1496C57.3312 37.2176 57.1435 36.5284 56.7487 36.0818C56.3604 35.6353 55.6873 35.412 54.7295 35.412C54.0953 35.412 53.5387 35.5576 53.0598 35.8488C52.5873 36.1336 52.254 36.5996 52.0599 37.2468L50.4192 36.7517C50.6716 35.8327 51.1603 35.111 51.8851 34.5868C52.61 34.0626 53.5646 33.8005 54.7489 33.8005C55.7003 33.8005 56.5157 33.972 57.1953 34.315C57.8813 34.6515 58.3732 35.1628 58.6709 35.8488C58.8197 36.1724 58.9136 36.5252 58.9524 36.907C58.9912 37.2824 59.0107 37.6771 59.0107 38.0913V44.5762H57.4768V42.0618L57.836 42.2948C57.4412 43.1427 56.8879 43.7834 56.176 44.217C55.4705 44.6506 54.6098 44.8674 53.5937 44.8674ZM53.8558 43.4209C54.4771 43.4209 55.0143 43.3109 55.4673 43.0909C55.9268 42.8644 56.2957 42.5699 56.574 42.2075C56.8523 41.8386 57.0335 41.4373 57.1176 41.0037C57.2147 40.6801 57.2665 40.3209 57.273 39.9261C57.2859 39.5249 57.2924 39.2175 57.2924 39.0039L57.8943 39.266C57.3312 39.3437 56.7779 39.4181 56.2342 39.4893C55.6906 39.5605 55.1761 39.6381 54.6907 39.7223C54.2053 39.7999 53.7684 39.8938 53.3801 40.0038C53.0954 40.0944 52.8268 40.2109 52.5744 40.3533C52.3284 40.4957 52.1278 40.6801 51.9725 40.9066C51.8236 41.1267 51.7492 41.4017 51.7492 41.7318C51.7492 42.0165 51.8204 42.2884 51.9628 42.5472C52.1116 42.8061 52.3381 43.0164 52.6423 43.1782C52.953 43.34 53.3575 43.4209 53.8558 43.4209ZM61.7288 44.5762V30.3057H63.4568V44.5762H61.7288ZM70.2566 44.5762V30.5969H75.7026C76.5375 30.5969 77.2494 30.7684 77.8384 31.1114C78.4338 31.4544 78.8868 31.9075 79.1975 32.4705C79.5146 33.0271 79.6731 33.629 79.6731 34.2762C79.6731 35.0334 79.479 35.6968 79.0907 36.2663C78.7024 36.8358 78.1781 37.2274 77.518 37.4409L77.4986 36.9652C78.3982 37.2047 79.0971 37.6448 79.5955 38.2855C80.0938 38.9262 80.343 39.6899 80.343 40.5766C80.343 41.392 80.1747 42.0974 79.8382 42.6929C79.5081 43.2883 79.0292 43.751 78.4014 44.0811C77.7801 44.4111 77.0423 44.5762 76.188 44.5762H70.2566ZM72.004 42.9258H75.858C76.3757 42.9258 76.8385 42.832 77.2462 42.6443C77.6539 42.4502 77.9743 42.1783 78.2073 41.8289C78.4467 41.4794 78.5664 41.0587 78.5664 40.5668C78.5664 40.0944 78.4597 39.6705 78.2461 39.2951C78.039 38.9197 77.7445 38.622 77.3627 38.402C76.9873 38.1755 76.5505 38.0622 76.0521 38.0622H72.004V42.9258ZM72.004 36.4313H75.6832C76.0974 36.4313 76.4696 36.3439 76.7996 36.1692C77.1362 35.988 77.4015 35.7356 77.5957 35.412C77.7963 35.0884 77.8966 34.7098 77.8966 34.2762C77.8966 33.6743 77.6927 33.1824 77.285 32.8006C76.8773 32.4187 76.3434 32.2278 75.6832 32.2278H72.004V36.4313ZM85.2579 44.8674C84.4748 44.8674 83.8179 44.725 83.2872 44.4403C82.763 44.149 82.3649 43.7672 82.0931 43.2947C81.8278 42.8223 81.6951 42.3045 81.6951 41.7415C81.6951 41.1914 81.7986 40.7157 82.0057 40.3144C82.2193 39.9067 82.517 39.5702 82.8989 39.3048C83.2807 39.033 83.737 38.8194 84.2677 38.6641C84.766 38.5282 85.3226 38.4117 85.9374 38.3146C86.5587 38.2111 87.1865 38.1172 87.8207 38.0331C88.455 37.949 89.0472 37.8681 89.5973 37.7904L88.976 38.1496C88.9954 37.2176 88.8077 36.5284 88.4129 36.0818C88.0246 35.6353 87.3515 35.412 86.3937 35.412C85.7594 35.412 85.2029 35.5576 84.7239 35.8488C84.2515 36.1336 83.9182 36.5996 83.724 37.2468L82.0834 36.7517C82.3358 35.8327 82.8244 35.111 83.5493 34.5868C84.2741 34.0626 85.2287 33.8005 86.4131 33.8005C87.3645 33.8005 88.1799 33.972 88.8595 34.315C89.5455 34.6515 90.0374 35.1628 90.3351 35.8488C90.4839 36.1724 90.5778 36.5252 90.6166 36.907C90.6554 37.2824 90.6748 37.6771 90.6748 38.0913V44.5762H89.141V42.0618L89.5002 42.2948C89.1054 43.1427 88.5521 43.7834 87.8401 44.217C87.1347 44.6506 86.274 44.8674 85.2579 44.8674ZM85.52 43.4209C86.1413 43.4209 86.6784 43.3109 87.1315 43.0909C87.591 42.8644 87.9599 42.5699 88.2382 42.2075C88.5165 41.8386 88.6977 41.4373 88.7818 41.0037C88.8789 40.6801 88.9307 40.3209 88.9371 39.9261C88.9501 39.5249 88.9565 39.2175 88.9565 39.0039L89.5584 39.266C88.9954 39.3437 88.442 39.4181 87.8984 39.4893C87.3548 39.5605 86.8402 39.6381 86.3549 39.7223C85.8695 39.7999 85.4326 39.8938 85.0443 40.0038C84.7595 40.0944 84.4909 40.2109 84.2385 40.3533C83.9926 40.4957 83.792 40.6801 83.6367 40.9066C83.4878 41.1267 83.4134 41.4017 83.4134 41.7318C83.4134 42.0165 83.4846 42.2884 83.627 42.5472C83.7758 42.8061 84.0023 43.0164 84.3065 43.1782C84.6172 43.34 85.0216 43.4209 85.52 43.4209ZM93.393 44.5762V30.3057H95.121V44.5762H93.393ZM101.014 44.8674C100.231 44.8674 99.5741 44.725 99.0434 44.4403C98.5192 44.149 98.1212 43.7672 97.8494 43.2947C97.584 42.8223 97.4513 42.3045 97.4513 41.7415C97.4513 41.1914 97.5549 40.7157 97.762 40.3144C97.9756 39.9067 98.2733 39.5702 98.6551 39.3048C99.0369 39.033 99.4932 38.8194 100.024 38.6641C100.522 38.5282 101.079 38.4117 101.694 38.3146C102.315 38.2111 102.943 38.1172 103.577 38.0331C104.211 37.949 104.803 37.8681 105.354 37.7904L104.732 38.1496C104.752 37.2176 104.564 36.5284 104.169 36.0818C103.781 35.6353 103.108 35.412 102.15 35.412C101.516 35.412 100.959 35.5576 100.48 35.8488C100.008 36.1336 99.6744 36.5996 99.4803 37.2468L97.8397 36.7517C98.0921 35.8327 98.5807 35.111 99.3055 34.5868C100.03 34.0626 100.985 33.8005 102.169 33.8005C103.121 33.8005 103.936 33.972 104.616 34.315C105.302 34.6515 105.794 35.1628 106.091 35.8488C106.24 36.1724 106.334 36.5252 106.373 36.907C106.412 37.2824 106.431 37.6771 106.431 38.0913V44.5762H104.897V42.0618L105.256 42.2948C104.862 43.1427 104.308 43.7834 103.596 44.217C102.891 44.6506 102.03 44.8674 101.014 44.8674ZM101.276 43.4209C101.898 43.4209 102.435 43.3109 102.888 43.0909C103.347 42.8644 103.716 42.5699 103.994 42.2075C104.273 41.8386 104.454 41.4373 104.538 41.0037C104.635 40.6801 104.687 40.3209 104.693 39.9261C104.706 39.5249 104.713 39.2175 104.713 39.0039L105.315 39.266C104.752 39.3437 104.198 39.4181 103.655 39.4893C103.111 39.5605 102.596 39.6381 102.111 39.7223C101.626 39.7999 101.189 39.8938 100.801 40.0038C100.516 40.0944 100.247 40.2109 99.9948 40.3533C99.7489 40.4957 99.5482 40.6801 99.3929 40.9066C99.244 41.1267 99.1696 41.4017 99.1696 41.7318C99.1696 42.0165 99.2408 42.2884 99.3832 42.5472C99.532 42.8061 99.7586 43.0164 100.063 43.1782C100.373 43.34 100.778 43.4209 101.276 43.4209ZM116.42 44.5762V39.3242C116.42 38.8259 116.375 38.347 116.285 37.8875C116.2 37.428 116.048 37.017 115.828 36.6546C115.615 36.2857 115.323 35.9945 114.955 35.7809C114.592 35.5673 114.133 35.4605 113.576 35.4605C113.142 35.4605 112.748 35.535 112.392 35.6838C112.042 35.8262 111.741 36.0462 111.489 36.3439C111.236 36.6416 111.039 37.017 110.897 37.47C110.761 37.9166 110.693 38.4441 110.693 39.0524L109.557 38.7029C109.557 37.6869 109.738 36.8164 110.101 36.0915C110.47 35.3602 110.984 34.8004 111.644 34.4121C112.311 34.0173 113.094 33.8199 113.993 33.8199C114.673 33.8199 115.252 33.9267 115.731 34.1403C116.21 34.3538 116.608 34.6386 116.925 34.9946C117.242 35.344 117.492 35.7388 117.673 36.1789C117.854 36.6125 117.98 37.0558 118.051 37.5089C118.129 37.9554 118.168 38.3793 118.168 38.7806V44.5762H116.42ZM108.945 44.5762V34.0917H110.499V36.8973H110.693V44.5762H108.945ZM125.014 44.8674C123.953 44.8674 123.05 44.6312 122.305 44.1587C121.568 43.6798 121.005 43.0229 120.616 42.188C120.228 41.3532 120.027 40.4018 120.014 39.3339C120.027 38.2402 120.231 37.2791 120.626 36.4507C121.027 35.6159 121.6 34.9654 122.344 34.4995C123.089 34.0335 123.985 33.8005 125.033 33.8005C126.14 33.8005 127.091 34.0723 127.887 34.6159C128.69 35.1596 129.227 35.9039 129.499 36.8487L127.79 37.3633C127.57 36.7549 127.211 36.2825 126.713 35.9459C126.221 35.6094 125.655 35.4411 125.014 35.4411C124.296 35.4411 123.703 35.6094 123.237 35.9459C122.771 36.276 122.425 36.7355 122.199 37.3244C121.972 37.9069 121.856 38.5767 121.849 39.3339C121.862 40.4989 122.131 41.4405 122.655 42.1589C123.186 42.8708 123.972 43.2268 125.014 43.2268C125.7 43.2268 126.27 43.0715 126.723 42.7608C127.176 42.4437 127.519 41.9874 127.752 41.392L129.499 41.8483C129.137 42.8255 128.57 43.573 127.8 44.0908C127.03 44.6085 126.101 44.8674 125.014 44.8674ZM135.739 44.8674C134.71 44.8674 133.811 44.6409 133.04 44.1879C132.277 43.7284 131.681 43.0909 131.254 42.2754C130.827 41.4535 130.613 40.4957 130.613 39.4019C130.613 38.2564 130.824 37.2662 131.244 36.4313C131.665 35.59 132.251 34.9428 133.002 34.4897C133.759 34.0302 134.645 33.8005 135.661 33.8005C136.716 33.8005 137.613 34.0432 138.351 34.5286C139.095 35.014 139.651 35.7065 140.02 36.6061C140.396 37.5056 140.557 38.5767 140.506 39.8193H138.758V39.198C138.739 37.9101 138.477 36.9491 137.972 36.3148C137.467 35.6741 136.716 35.3537 135.72 35.3537C134.652 35.3537 133.84 35.6968 133.283 36.3828C132.726 37.0688 132.448 38.0525 132.448 39.3339C132.448 40.5701 132.726 41.5279 133.283 42.2075C133.84 42.887 134.632 43.2268 135.661 43.2268C136.354 43.2268 136.956 43.0682 137.467 42.7511C137.978 42.434 138.38 41.9777 138.671 41.3823L140.331 41.9551C139.923 42.8805 139.308 43.5989 138.486 44.1102C137.671 44.615 136.755 44.8674 135.739 44.8674ZM131.866 39.8193V38.4311H139.613V39.8193H131.866Z" fill="#161616"/>
<path d="M27.9256 83.4548V80.8254H30.5994V83.4548H27.9256ZM27.9256 65.7034V63.0739H30.5994V65.7034H27.9256ZM29.3235 81.5798C28.1993 81.5798 27.1934 81.3727 26.3058 80.9585C25.4182 80.5443 24.6897 79.96 24.1202 79.2055C23.558 78.4511 23.1993 77.5561 23.044 76.5206L25.6845 76.099C25.8916 77.0088 26.3354 77.7336 27.0159 78.2736C27.7037 78.8061 28.5247 79.0724 29.4789 79.0724C30.396 79.0724 31.1505 78.8579 31.7422 78.4289C32.3339 77.9925 32.6297 77.4415 32.6297 76.7758C32.6297 76.3098 32.4892 75.9326 32.2082 75.6442C31.9271 75.3483 31.4759 75.1042 30.8546 74.9119L27.0048 73.7137C24.7636 73.0184 23.6431 71.6575 23.6431 69.6309C23.6431 68.6841 23.8687 67.8594 24.3199 67.1567C24.7784 66.4467 25.4219 65.9031 26.2503 65.5258C27.0787 65.1412 28.0551 64.9526 29.1793 64.96C30.2222 64.9674 31.1505 65.156 31.9641 65.5258C32.7851 65.8957 33.4655 66.4282 34.0055 67.1235C34.5528 67.8187 34.9411 68.6545 35.1704 69.6309L32.43 70.1301C32.3265 69.605 32.1231 69.1427 31.8198 68.7433C31.5166 68.3439 31.1357 68.0332 30.6771 67.8113C30.2185 67.5894 29.7082 67.4711 29.146 67.4563C28.6061 67.4489 28.1216 67.534 27.6926 67.7115C27.2636 67.8816 26.9234 68.1257 26.6719 68.4437C26.4204 68.7544 26.2947 69.1057 26.2947 69.4977C26.2947 69.9341 26.4685 70.3076 26.8162 70.6183C27.1712 70.9289 27.7296 71.1952 28.4914 71.4171L31.365 72.2492C32.7481 72.6486 33.7429 73.1922 34.3494 73.8801C34.9633 74.5606 35.2703 75.4666 35.2703 76.5983C35.2703 77.5894 35.0225 78.4585 34.5269 79.2055C34.0314 79.9526 33.3361 80.5369 32.4411 80.9585C31.5462 81.3727 30.507 81.5798 29.3235 81.5798ZM40.4499 81.247V68.1886L37.4544 70.0192V67.068L40.4499 65.2707H43.1792V81.247H40.4499ZM53.1528 81.5798C52.0211 81.5798 51.0226 81.3394 50.1572 80.8586C49.2918 80.3705 48.6151 79.6937 48.1269 78.8283C47.6461 77.9629 47.4057 76.9644 47.4057 75.8328V70.6848C47.4057 69.5532 47.6461 68.5547 48.1269 67.6893C48.6151 66.8239 49.2918 66.1508 50.1572 65.6701C51.0226 65.1819 52.0211 64.9378 53.1528 64.9378C54.2844 64.9378 55.2792 65.1819 56.1372 65.6701C57.0026 66.1508 57.6794 66.8239 58.1676 67.6893C58.6557 68.5547 58.8998 69.5532 58.8998 70.6848V75.8328C58.8998 76.9644 58.6557 77.9629 58.1676 78.8283C57.6794 79.6937 57.0026 80.3705 56.1372 80.8586C55.2792 81.3394 54.2844 81.5798 53.1528 81.5798ZM53.1528 79.0391C53.7149 79.0391 54.2253 78.906 54.6838 78.6397C55.1424 78.366 55.5048 78.0036 55.7711 77.5524C56.0374 77.0939 56.1705 76.5835 56.1705 76.0214V70.4851C56.1705 69.9156 56.0374 69.4053 55.7711 68.9541C55.5048 68.4955 55.1424 68.1331 54.6838 67.8668C54.2253 67.5931 53.7149 67.4563 53.1528 67.4563C52.5906 67.4563 52.0803 67.5931 51.6217 67.8668C51.1631 68.1331 50.8007 68.4955 50.5344 68.9541C50.2682 69.4053 50.135 69.9156 50.135 70.4851V76.0214C50.135 76.5835 50.2682 77.0939 50.5344 77.5524C50.8007 78.0036 51.1631 78.366 51.6217 78.6397C52.0803 78.906 52.5906 79.0391 53.1528 79.0391ZM61.7889 84.0761L61.9442 82.9222C62.2845 82.9518 62.5544 82.8927 62.7542 82.7447C62.9539 82.6042 63.087 82.4008 63.1536 82.1345C63.2275 81.8757 63.246 81.5798 63.209 81.247H61.7889V78.3956H64.5293V81.3579C64.5293 82.3268 64.3 83.0591 63.8414 83.5546C63.3828 84.0502 62.6987 84.224 61.7889 84.0761ZM74.497 81.5798C73.3653 81.5798 72.3668 81.3394 71.5014 80.8586C70.636 80.3705 69.9593 79.6937 69.4711 78.8283C68.9903 77.9629 68.7499 76.9644 68.7499 75.8328V70.6848C68.7499 69.5532 68.9903 68.5547 69.4711 67.6893C69.9593 66.8239 70.636 66.1508 71.5014 65.6701C72.3668 65.1819 73.3653 64.9378 74.497 64.9378C75.6286 64.9378 76.6234 65.1819 77.4814 65.6701C78.3468 66.1508 79.0236 66.8239 79.5118 67.6893C79.9999 68.5547 80.244 69.5532 80.244 70.6848V75.8328C80.244 76.9644 79.9999 77.9629 79.5118 78.8283C79.0236 79.6937 78.3468 80.3705 77.4814 80.8586C76.6234 81.3394 75.6286 81.5798 74.497 81.5798ZM74.497 79.0391C75.0591 79.0391 75.5695 78.906 76.028 78.6397C76.4866 78.366 76.849 78.0036 77.1153 77.5524C77.3816 77.0939 77.5147 76.5835 77.5147 76.0214V70.4851C77.5147 69.9156 77.3816 69.4053 77.1153 68.9541C76.849 68.4955 76.4866 68.1331 76.028 67.8668C75.5695 67.5931 75.0591 67.4563 74.497 67.4563C73.9348 67.4563 73.4245 67.5931 72.9659 67.8668C72.5073 68.1331 72.1449 68.4955 71.8786 68.9541C71.6124 69.4053 71.4792 69.9156 71.4792 70.4851V76.0214C71.4792 76.5835 71.6124 77.0939 71.8786 77.5524C72.1449 78.0036 72.5073 78.366 72.9659 78.6397C73.4245 78.906 73.9348 79.0391 74.497 79.0391ZM89.102 81.5798C87.9704 81.5798 86.9719 81.3394 86.1065 80.8586C85.2411 80.3705 84.5643 79.6937 84.0762 78.8283C83.5954 77.9629 83.355 76.9644 83.355 75.8328V70.6848C83.355 69.5532 83.5954 68.5547 84.0762 67.6893C84.5643 66.8239 85.2411 66.1508 86.1065 65.6701C86.9719 65.1819 87.9704 64.9378 89.102 64.9378C90.2337 64.9378 91.2285 65.1819 92.0865 65.6701C92.9519 66.1508 93.6287 66.8239 94.1168 67.6893C94.605 68.5547 94.8491 69.5532 94.8491 70.6848V75.8328C94.8491 76.9644 94.605 77.9629 94.1168 78.8283C93.6287 79.6937 92.9519 80.3705 92.0865 80.8586C91.2285 81.3394 90.2337 81.5798 89.102 81.5798ZM89.102 79.0391C89.6642 79.0391 90.1745 78.906 90.6331 78.6397C91.0917 78.366 91.4541 78.0036 91.7204 77.5524C91.9866 77.0939 92.1198 76.5835 92.1198 76.0214V70.4851C92.1198 69.9156 91.9866 69.4053 91.7204 68.9541C91.4541 68.4955 91.0917 68.1331 90.6331 67.8668C90.1745 67.5931 89.6642 67.4563 89.102 67.4563C88.5399 67.4563 88.0296 67.5931 87.571 67.8668C87.1124 68.1331 86.75 68.4955 86.4837 68.9541C86.2174 69.4053 86.0843 69.9156 86.0843 70.4851V76.0214C86.0843 76.5835 86.2174 77.0939 86.4837 77.5524C86.75 78.0036 87.1124 78.366 87.571 78.6397C88.0296 78.906 88.5399 79.0391 89.102 79.0391ZM103.707 81.5798C102.575 81.5798 101.577 81.3394 100.712 80.8586C99.8462 80.3705 99.1694 79.6937 98.6812 78.8283C98.2005 77.9629 97.9601 76.9644 97.9601 75.8328V70.6848C97.9601 69.5532 98.2005 68.5547 98.6812 67.6893C99.1694 66.8239 99.8462 66.1508 100.712 65.6701C101.577 65.1819 102.575 64.9378 103.707 64.9378C104.839 64.9378 105.834 65.1819 106.692 65.6701C107.557 66.1508 108.234 66.8239 108.722 67.6893C109.21 68.5547 109.454 69.5532 109.454 70.6848V75.8328C109.454 76.9644 109.21 77.9629 108.722 78.8283C108.234 79.6937 107.557 80.3705 106.692 80.8586C105.834 81.3394 104.839 81.5798 103.707 81.5798ZM103.707 79.0391C104.269 79.0391 104.78 78.906 105.238 78.6397C105.697 78.366 106.059 78.0036 106.325 77.5524C106.592 77.0939 106.725 76.5835 106.725 76.0214V70.4851C106.725 69.9156 106.592 69.4053 106.325 68.9541C106.059 68.4955 105.697 68.1331 105.238 67.8668C104.78 67.5931 104.269 67.4563 103.707 67.4563C103.145 67.4563 102.635 67.5931 102.176 67.8668C101.717 68.1331 101.355 68.4955 101.089 68.9541C100.823 69.4053 100.689 69.9156 100.689 70.4851V76.0214C100.689 76.5835 100.823 77.0939 101.089 77.5524C101.355 78.0036 101.717 78.366 102.176 78.6397C102.635 78.906 103.145 79.0391 103.707 79.0391Z" fill="#161616"/>
<path d="M268.525 76.2449V72.8014H265.082V71.4762H268.525V68.0418H269.851V71.4762H273.285V72.8014H269.851V76.2449H268.525ZM275.272 78.6247L275.281 77.1824L281.041 71.9991C281.522 71.5664 281.843 71.1577 282.006 70.7731C282.174 70.3825 282.258 69.9829 282.258 69.5742C282.258 69.0754 282.144 68.6247 281.915 68.222C281.687 67.8194 281.375 67.5009 280.978 67.2665C280.587 67.0321 280.143 66.9149 279.644 66.9149C279.127 66.9149 278.667 67.0381 278.265 67.2845C277.862 67.5249 277.543 67.8464 277.309 68.2491C277.081 68.6517 276.969 69.0904 276.975 69.5652H275.335C275.335 68.7479 275.524 68.0267 275.903 67.4017C276.281 66.7707 276.795 66.2779 277.444 65.9234C278.099 65.5628 278.841 65.3825 279.671 65.3825C280.476 65.3825 281.197 65.5688 281.834 65.9414C282.471 66.308 282.973 66.8098 283.34 67.4468C283.712 68.0778 283.899 68.793 283.899 69.5922C283.899 70.1571 283.826 70.6469 283.682 71.0616C283.544 71.4762 283.328 71.8609 283.033 72.2154C282.739 72.564 282.369 72.9366 281.924 73.3332L277.138 77.6331L276.93 77.0922H283.899V78.6247H275.272ZM290.436 78.9041C289.595 78.9041 288.844 78.7148 288.183 78.3362C287.528 77.9516 287.008 77.4318 286.623 76.7767C286.245 76.1157 286.055 75.3645 286.055 74.5231V69.7635C286.055 68.9222 286.245 68.171 286.623 67.5099C287.008 66.8488 287.528 66.329 288.183 65.9504C288.844 65.5718 289.595 65.3825 290.436 65.3825C291.278 65.3825 292.029 65.5718 292.69 65.9504C293.351 66.329 293.871 66.8488 294.249 67.5099C294.628 68.171 294.817 68.9222 294.817 69.7635V74.5231C294.817 75.3645 294.628 76.1157 294.249 76.7767C293.871 77.4318 293.351 77.9516 292.69 78.3362C292.029 78.7148 291.278 78.9041 290.436 78.9041ZM290.436 77.3626C290.947 77.3626 291.41 77.2394 291.824 76.9931C292.239 76.7467 292.57 76.4161 292.816 76.0015C293.062 75.5808 293.186 75.1181 293.186 74.6133V69.6643C293.186 69.1535 293.062 68.6908 292.816 68.2761C292.57 67.8615 292.239 67.5309 291.824 67.2845C291.41 67.0381 290.947 66.9149 290.436 66.9149C289.931 66.9149 289.469 67.0381 289.048 67.2845C288.633 67.5309 288.303 67.8615 288.056 68.2761C287.81 68.6908 287.687 69.1535 287.687 69.6643V74.6133C287.687 75.1181 287.81 75.5808 288.056 76.0015C288.303 76.4161 288.633 76.7467 289.048 76.9931C289.469 77.2394 289.931 77.3626 290.436 77.3626ZM298.783 78.6337L297.701 77.5519L309.618 65.6529L310.7 66.7347L298.783 78.6337ZM307.996 78.9041C307.401 78.9041 306.857 78.7599 306.364 78.4714C305.877 78.1769 305.487 77.7863 305.192 77.2995C304.898 76.8068 304.751 76.2599 304.751 75.6589C304.751 75.07 304.901 74.5291 305.201 74.0363C305.502 73.5435 305.899 73.1499 306.391 72.8554C306.884 72.561 307.419 72.4137 307.996 72.4137C308.591 72.4137 309.135 72.561 309.627 72.8554C310.12 73.1439 310.511 73.5345 310.799 74.0273C311.094 74.5141 311.241 75.058 311.241 75.6589C311.241 76.2599 311.094 76.8068 310.799 77.2995C310.511 77.7863 310.12 78.1769 309.627 78.4714C309.135 78.7599 308.591 78.9041 307.996 78.9041ZM307.996 77.4888C308.326 77.4888 308.63 77.4047 308.906 77.2364C309.189 77.0682 309.411 76.8458 309.573 76.5694C309.742 76.2929 309.826 75.9894 309.826 75.6589C309.826 75.3284 309.742 75.0249 309.573 74.7485C309.411 74.466 309.189 74.2437 308.906 74.0814C308.63 73.9131 308.326 73.829 307.996 73.829C307.665 73.829 307.362 73.9131 307.085 74.0814C306.809 74.2437 306.587 74.466 306.418 74.7485C306.25 75.0249 306.166 75.3284 306.166 75.6589C306.166 75.9894 306.25 76.2929 306.418 76.5694C306.587 76.8458 306.809 77.0682 307.085 77.2364C307.362 77.4047 307.665 77.4888 307.996 77.4888ZM300.406 71.8729C299.811 71.8729 299.267 71.7286 298.774 71.4402C298.281 71.1457 297.888 70.7551 297.593 70.2683C297.305 69.7755 297.161 69.2286 297.161 68.6277C297.161 68.0387 297.311 67.4979 297.611 67.0051C297.912 66.5123 298.308 66.1187 298.801 65.8242C299.294 65.5297 299.829 65.3825 300.406 65.3825C301.001 65.3825 301.542 65.5297 302.028 65.8242C302.521 66.1127 302.915 66.5033 303.209 66.9961C303.504 67.4829 303.651 68.0267 303.651 68.6277C303.651 69.2286 303.504 69.7755 303.209 70.2683C302.915 70.7551 302.521 71.1457 302.028 71.4402C301.542 71.7286 301.001 71.8729 300.406 71.8729ZM300.406 70.4576C300.736 70.4576 301.04 70.3735 301.316 70.2052C301.599 70.0369 301.821 69.8146 301.983 69.5381C302.152 69.2617 302.236 68.9582 302.236 68.6277C302.236 68.2972 302.152 67.9937 301.983 67.7172C301.821 67.4348 301.599 67.2124 301.316 67.0502C301.04 66.8819 300.736 66.7978 300.406 66.7978C300.075 66.7978 299.772 66.8819 299.495 67.0502C299.219 67.2124 298.996 67.4348 298.828 67.7172C298.66 67.9937 298.576 68.2972 298.576 68.6277C298.576 68.9582 298.66 69.2617 298.828 69.5381C298.996 69.8146 299.219 70.0369 299.495 70.2052C299.772 70.3735 300.075 70.4576 300.406 70.4576Z" fill="#FFA051"/>
<path d="M21.7755 100.699H22.885V108.465H21.6091V102.063L20.0447 102.507L19.7341 101.42L21.7755 100.699ZM29.4538 107.511C28.9212 108.243 28.1742 108.609 27.2127 108.609C26.2511 108.609 25.5004 108.243 24.9604 107.511C24.4279 106.778 24.1616 105.802 24.1616 104.582C24.1616 103.361 24.4279 102.385 24.9604 101.653C25.5004 100.92 26.2511 100.554 27.2127 100.554C28.1742 100.554 28.9212 100.92 29.4538 101.653C29.9937 102.385 30.2637 103.361 30.2637 104.582C30.2637 105.802 29.9937 106.778 29.4538 107.511ZM27.2127 107.366C27.7896 107.366 28.2297 107.126 28.5329 106.645C28.8362 106.165 28.9878 105.477 28.9878 104.582C28.9878 103.687 28.8362 102.999 28.5329 102.518C28.2297 102.037 27.7896 101.797 27.2127 101.797C26.6431 101.797 26.203 102.037 25.8924 102.518C25.5891 102.999 25.4375 103.687 25.4375 104.582C25.4375 105.477 25.5891 106.165 25.8924 106.645C26.203 107.126 26.6431 107.366 27.2127 107.366ZM36.309 108.465H34.8778L32.6034 105.902V108.465H31.4051V100.699H32.6034V105.369L34.7557 102.918H36.2202L33.7794 105.636L36.309 108.465Z" fill="#718EBF"/>
<path d="M32.0636 132.229V133.417H31.176V134.814H29.889V133.417H26.0725V132.229L28.7463 127.048H30.1331L27.4593 132.229H29.889V130.21H31.176V132.229H32.0636ZM37.8558 134.814H36.4246L34.1502 132.252V134.814H32.952V127.048H34.1502V131.719L36.3026 129.267H37.7671L35.3263 131.985L37.8558 134.814Z" fill="#718EBF"/>
<path d="M25.7246 161.165V160.166L28.4317 157.403C29.09 156.745 29.4191 156.176 29.4191 155.695C29.4191 155.318 29.3045 155.026 29.0752 154.818C28.8533 154.604 28.5685 154.497 28.2209 154.497C27.57 154.497 27.0893 154.818 26.7786 155.462L25.7024 154.83C25.9465 154.312 26.2904 153.92 26.7342 153.653C27.178 153.387 27.6699 153.254 28.2098 153.254C28.8903 153.254 29.4746 153.469 29.9628 153.898C30.4509 154.327 30.695 154.911 30.695 155.651C30.695 156.442 30.2549 157.285 29.3748 158.18L27.6218 159.933H30.8393V161.165H25.7246ZM36.8558 161.165H35.4246L33.1502 158.602V161.165H31.952V153.398H33.1502V158.069L35.3026 155.617H36.7671L34.3263 158.335L36.8558 161.165Z" fill="#718EBF"/>
<path d="M34.8707 187.947C34.3381 188.679 33.5911 189.045 32.6295 189.045C31.668 189.045 30.9173 188.679 30.3773 187.947C29.8448 187.214 29.5785 186.238 29.5785 185.018C29.5785 183.797 29.8448 182.821 30.3773 182.089C30.9173 181.357 31.668 180.99 32.6295 180.99C33.5911 180.99 34.3381 181.357 34.8707 182.089C35.4106 182.821 35.6806 183.797 35.6806 185.018C35.6806 186.238 35.4106 187.214 34.8707 187.947ZM32.6295 187.803C33.2065 187.803 33.6465 187.562 33.9498 187.081C34.253 186.601 34.4047 185.913 34.4047 185.018C34.4047 184.123 34.253 183.435 33.9498 182.954C33.6465 182.473 33.2065 182.233 32.6295 182.233C32.06 182.233 31.6199 182.473 31.3093 182.954C31.006 183.435 30.8544 184.123 30.8544 185.018C30.8544 185.913 31.006 186.601 31.3093 187.081C31.6199 187.562 32.06 187.803 32.6295 187.803Z" fill="#718EBF"/>
<path d="M66.7713 205.688C66.0242 205.688 65.3881 205.518 64.863 205.177C64.3452 204.837 63.9828 204.371 63.7757 203.779L64.8741 203.136C65.1847 204.009 65.8282 204.445 66.8045 204.445C67.2853 204.445 67.644 204.353 67.8807 204.168C68.1248 203.975 68.2468 203.728 68.2468 203.424C68.2468 203.106 68.1174 202.866 67.8585 202.703C67.5997 202.533 67.1411 202.348 66.4828 202.148C66.113 202.038 65.8134 201.934 65.5841 201.838C65.3548 201.742 65.1108 201.609 64.8519 201.438C64.6004 201.261 64.4118 201.043 64.2861 200.784C64.1603 200.525 64.0974 200.222 64.0974 199.874C64.0974 199.186 64.3415 198.643 64.8297 198.243C65.3179 197.836 65.9059 197.633 66.5937 197.633C67.215 197.633 67.7587 197.785 68.2247 198.088C68.6906 198.391 69.0494 198.809 69.3008 199.342L68.2247 199.963C67.8992 199.238 67.3556 198.876 66.5937 198.876C66.2239 198.876 65.9281 198.964 65.7062 199.142C65.4843 199.312 65.3733 199.545 65.3733 199.841C65.3733 200.129 65.4843 200.359 65.7062 200.529C65.9355 200.691 66.346 200.865 66.9377 201.05C67.2335 201.146 67.448 201.22 67.5812 201.272C67.7217 201.316 67.914 201.39 68.1581 201.494C68.4096 201.597 68.5982 201.701 68.7239 201.805C68.8497 201.908 68.9828 202.038 69.1233 202.193C69.2712 202.348 69.3748 202.526 69.434 202.725C69.4931 202.925 69.5227 203.151 69.5227 203.402C69.5227 204.105 69.2675 204.663 68.7572 205.077C68.2542 205.484 67.5923 205.688 66.7713 205.688Z" fill="#718EBF"/>
<path d="M48.5391 178.901C48.5391 176.603 50.4018 174.741 52.6996 174.741H72.1153C74.413 174.741 76.2757 176.603 76.2757 178.901V191.383H48.5391V178.901Z" fill="#E8F2FF"/>
<path d="M99.7484 197.777V205.543H98.4726V200.007L96.1094 203.912H95.9541L93.5909 199.996V205.543H92.315V197.777H93.6908L96.0317 201.66L98.3838 197.777H99.7484Z" fill="#718EBF"/>
<path d="M81.8223 170.58C81.8223 168.282 83.685 166.42 85.9828 166.42H105.398C107.696 166.42 109.559 168.282 109.559 170.58V191.383H81.8223V170.58Z" fill="#E8F2FF"/>
<path d="M132.03 197.777V198.997H129.845V205.543H128.569V198.997H126.372V197.777H132.03Z" fill="#718EBF"/>
<path d="M115.107 137.297C115.107 134.999 116.97 133.136 119.268 133.136H138.684C140.981 133.136 142.844 134.999 142.844 137.297V191.383H115.107V137.297Z" fill="#E8F2FF"/>
<path d="M159.588 205.543L157.391 197.777H158.733L160.364 203.846L162.128 197.777H163.304L165.057 203.846L166.688 197.777H168.031L165.834 205.543H164.358L162.716 199.874L161.063 205.543H159.588Z" fill="#718EBF"/>
<path d="M148.391 152.551C148.391 150.254 150.253 148.391 152.551 148.391H171.967C174.265 148.391 176.127 150.254 176.127 152.551V191.383H148.391V152.551Z" fill="#FFA051"/>
<path d="M198.6 197.777V198.998H196.415V205.544H195.139V198.998H192.942V197.777H198.6Z" fill="#718EBF"/>
<path d="M181.676 113.72C181.676 111.423 183.539 109.56 185.836 109.56H205.252C207.55 109.56 209.412 111.423 209.412 113.72V191.383H181.676V113.72Z" fill="#FFA051"/>
<path d="M232.896 198.997H229.623V201.172H232.785V202.392H229.623V205.543H228.347V197.777H232.896V198.997Z" fill="#718EBF"/>
<path d="M214.959 178.901C214.959 176.604 216.822 174.741 219.119 174.741H238.535C240.833 174.741 242.696 176.604 242.696 178.901V191.383H214.959V178.901Z" fill="#E8F2FF"/>
<path d="M262.974 205.687C262.227 205.687 261.591 205.517 261.066 205.177C260.548 204.837 260.186 204.371 259.979 203.779L261.077 203.136C261.388 204.009 262.031 204.445 263.008 204.445C263.488 204.445 263.847 204.352 264.084 204.168C264.328 203.975 264.45 203.727 264.45 203.424C264.45 203.106 264.321 202.866 264.062 202.703C263.803 202.533 263.344 202.348 262.686 202.148C262.316 202.037 262.017 201.934 261.787 201.838C261.558 201.741 261.314 201.608 261.055 201.438C260.804 201.261 260.615 201.043 260.489 200.784C260.363 200.525 260.301 200.222 260.301 199.874C260.301 199.186 260.545 198.642 261.033 198.243C261.521 197.836 262.109 197.633 262.797 197.633C263.418 197.633 263.962 197.784 264.428 198.088C264.894 198.391 265.252 198.809 265.504 199.341L264.428 199.963C264.102 199.238 263.559 198.875 262.797 198.875C262.427 198.875 262.131 198.964 261.909 199.142C261.687 199.312 261.576 199.545 261.576 199.841C261.576 200.129 261.687 200.358 261.909 200.528C262.139 200.691 262.549 200.865 263.141 201.05C263.437 201.146 263.651 201.22 263.784 201.272C263.925 201.316 264.117 201.39 264.361 201.494C264.613 201.597 264.801 201.701 264.927 201.804C265.053 201.908 265.186 202.037 265.326 202.193C265.474 202.348 265.578 202.526 265.637 202.725C265.696 202.925 265.726 203.151 265.726 203.402C265.726 204.105 265.471 204.663 264.96 205.077C264.457 205.484 263.795 205.687 262.974 205.687Z" fill="#718EBF"/>
<path d="M248.242 152.551C248.242 150.254 250.105 148.391 252.403 148.391H271.818C274.116 148.391 275.979 150.254 275.979 152.551V191.383H248.242V152.551Z" fill="#FFA051"/>
<path d="M297.648 205.687C296.901 205.687 296.265 205.517 295.74 205.177C295.222 204.837 294.86 204.371 294.653 203.779L295.751 203.136C296.062 204.009 296.705 204.445 297.681 204.445C298.162 204.445 298.521 204.352 298.758 204.168C299.002 203.975 299.124 203.727 299.124 203.424C299.124 203.106 298.994 202.866 298.735 202.703C298.477 202.533 298.018 202.348 297.36 202.148C296.99 202.037 296.69 201.934 296.461 201.838C296.232 201.741 295.988 201.608 295.729 201.438C295.477 201.261 295.289 201.043 295.163 200.784C295.037 200.525 294.974 200.222 294.974 199.874C294.974 199.186 295.218 198.642 295.707 198.243C296.195 197.836 296.783 197.633 297.471 197.633C298.092 197.633 298.636 197.784 299.102 198.088C299.568 198.391 299.926 198.809 300.178 199.341L299.102 199.963C298.776 199.238 298.233 198.875 297.471 198.875C297.101 198.875 296.805 198.964 296.583 199.142C296.361 199.312 296.25 199.545 296.25 199.841C296.25 200.129 296.361 200.358 296.583 200.528C296.812 200.691 297.223 200.865 297.815 201.05C298.11 201.146 298.325 201.22 298.458 201.272C298.599 201.316 298.791 201.39 299.035 201.494C299.287 201.597 299.475 201.701 299.601 201.804C299.727 201.908 299.86 202.037 300 202.193C300.148 202.348 300.252 202.526 300.311 202.725C300.37 202.925 300.4 203.151 300.4 203.402C300.4 204.105 300.145 204.663 299.634 205.077C299.131 205.484 298.469 205.687 297.648 205.687Z" fill="#718EBF"/>
<path d="M281.527 131.749C281.527 129.451 283.39 127.589 285.688 127.589H305.104C307.401 127.589 309.264 129.451 309.264 131.749V191.383H281.527V131.749Z" fill="#FFA051"/>
</svg>
